<?xml version="1.0" encoding="UTF-8"?>
<svg version="1.1" xmlns="http://www.w3.org/2000/svg" width="512" height="512">
<path d="M0 0 C4.58887011 3.50248987 8.96497595 7.22304665 13.30078125 11.03027344 C16.24353161 13.6092581 19.21653435 16.1528514 22.1875 18.69921875 C22.77684326 19.20590088 23.36618652 19.71258301 23.97338867 20.23461914 C27.44265571 23.21123773 30.94820428 26.13344873 34.5 29.01171875 C39.60557465 33.15482866 44.56050053 37.45652325 49.51538086 41.77709961 C53.14987851 44.93887713 56.81770843 48.04272081 60.5625 51.07421875 C65.645338 55.18889713 70.57253576 59.46661733 75.50024414 63.76416016 C80.06110887 67.73210664 84.68882416 71.59276206 89.40234375 75.37890625 C92.0625 77.57421875 92.0625 77.57421875 93.64038086 79.30200195 C99.24804674 85.08563589 104.7263668 85.95574073 112.56832886 86.7817688 C114.82168617 87.01927453 117.06837457 87.29255348 119.31665039 87.57397461 C122.81828698 88.00838005 126.32142791 88.42639558 129.82617188 88.83496094 C140.50252045 90.08892953 151.16405893 91.46437161 161.82481861 92.84369373 C165.90384648 93.37055431 169.98425105 93.88413589 174.06635475 94.38658905 C177.28365248 94.7852416 180.49905766 95.19873405 183.71484375 95.609375 C184.8679303 95.74783844 186.02101685 95.88630188 187.20904541 96.02896118 C206.58868239 98.55246361 223.25613218 105.75813234 236.11328125 120.83203125 C238.52815306 124.22930582 240.48431657 127.73946208 242.375 131.44921875 C242.70064941 132.08472656 243.02629883 132.72023438 243.36181641 133.375 C248.81663496 144.6533976 249.526016 155.60599979 249.49609375 167.9140625 C249.50066341 169.57027906 249.5059713 171.22649372 249.51197815 172.88270569 C249.52085694 176.33114397 249.51854142 179.77934992 249.50854492 183.2277832 C249.49698571 187.6452438 249.51739831 192.06191321 249.54646206 196.47926998 C249.56479193 199.88935921 249.56453938 203.2992569 249.55882454 206.70938301 C249.55867133 208.33887414 249.56471504 209.96837824 249.57711601 211.59782219 C249.5919865 213.86903072 249.58138492 216.13875042 249.56420898 218.40991211 C249.56395973 220.34537148 249.56395973 220.34537148 249.56370544 222.31993103 C249.0625 225.57421875 249.0625 225.57421875 247.239151 227.98963928 C244.09154791 230.28106185 241.67360204 230.09200873 237.8125 230.10546875 C237.11737305 230.10929565 236.42224609 230.11312256 235.70605469 230.11706543 C234.24021959 230.11978055 232.77433572 230.1124471 231.30859375 230.09570312 C229.06921025 230.07428294 226.83303413 230.09551318 224.59375 230.12109375 C223.16665961 230.1184504 221.73957121 230.11332525 220.3125 230.10546875 C219.01828125 230.10095703 217.7240625 230.09644531 216.390625 230.09179688 C212.54085363 229.49309417 211.3850967 228.63428229 209.0625 225.57421875 C207.68500946 222.08457604 207.95135171 220.84944309 209.375 217.32421875 C211.0625 214.57421875 211.0625 214.57421875 213.0625 213.57421875 C214.51098582 213.49079716 215.96320869 213.46689014 217.4140625 213.4765625 C218.26484375 213.47978516 219.115625 213.48300781 219.9921875 213.48632812 C220.88164062 213.49470703 221.77109375 213.50308594 222.6875 213.51171875 C223.5846875 213.51623047 224.481875 213.52074219 225.40625 213.52539062 C227.62502831 213.53719264 229.84377243 213.55512836 232.0625 213.57421875 C232.0625 208.29421875 232.0625 203.01421875 232.0625 197.57421875 C230.02234711 197.61641037 227.98219421 197.65860199 225.88021851 197.70207214 C206.44065853 198.09452097 187.00163124 198.37498364 167.55896568 198.55865002 C157.56828519 198.65558698 147.58058618 198.78761498 137.59179688 199.00756836 C54.09718213 200.80863479 54.09718213 200.80863479 17.10019684 179.6962471 C11.99994781 176.88786859 6.60610474 174.68433427 1.265625 172.37890625 C-0.59998446 171.53618903 -2.46430921 170.69062017 -4.32714844 169.84179688 C-24.63454133 160.72655196 -41.77618811 155.63813629 -64.12402344 157.80273438 C-66.9375 157.57421875 -66.9375 157.57421875 -69.26269531 155.72851562 C-71.2508376 153.17117341 -71.86028149 151.817396 -71.9375 148.57421875 C-69.66039157 142.93566453 -69.66039157 142.93566453 -66.9375 141.57421875 C-36.29129672 137.56046331 -12.54371526 145.44157393 14.90698242 158.60302734 C15.63992523 158.94984558 16.37286804 159.29666382 17.12802124 159.6539917 C18.6784457 160.39152501 20.22024873 161.14717073 21.7590332 161.90869141 C27.94980423 163.69735509 33.8358305 160.0875076 39.34375 157.53125 C40.67956116 156.9221302 40.67956116 156.9221302 42.0423584 156.30070496 C44.88553143 155.00275019 47.72413733 153.69515472 50.5625 152.38671875 C54.28004401 150.68225626 57.99919948 148.98132879 61.71875 147.28125 C62.61343994 146.87206329 63.50812988 146.46287659 64.42993164 146.04129028 C85.17345963 136.57421875 85.17345963 136.57421875 88.0625 136.57421875 C88.0625 123.37421875 88.0625 110.17421875 88.0625 96.57421875 C86.7425 95.91421875 85.4225 95.25421875 84.0625 94.57421875 C82.62491654 93.56161434 81.2079872 92.51909227 79.8125 91.44921875 C78.75289063 90.64097656 78.75289063 90.64097656 77.671875 89.81640625 C77.14078125 89.40648437 76.6096875 88.9965625 76.0625 88.57421875 C73.4982175 91.92702601 70.93639965 95.28170876 68.375 98.63671875 C67.65376953 99.57966797 66.93253906 100.52261719 66.18945312 101.49414062 C63.12275217 105.51305922 60.06695076 109.52747031 57.16015625 113.6640625 C54.14341661 117.84929719 54.14341661 117.84929719 51.0625 118.57421875 C47.7056158 118.39754063 45.09832092 118.1957113 42.1875 116.44921875 C40.29678837 113.29803271 40.00276481 111.27780032 40.0625 107.57421875 C44.35414596 99.35001329 50.98685323 92.06333654 56.66796875 84.77539062 C57.36277344 83.87498047 58.05757812 82.97457031 58.7734375 82.046875 C59.40556152 81.23484619 60.03768555 80.42281738 60.68896484 79.58618164 C62.25044165 77.70493766 62.25044165 77.70493766 62.0625 75.57421875 C60.28145282 73.97243282 58.43712722 72.44039949 56.5625 70.94921875 C55.5415625 70.13195312 54.520625 69.3146875 53.46875 68.47265625 C52.6746875 67.84617187 51.880625 67.2196875 51.0625 66.57421875 C45.33266164 73.37928604 39.9481937 80.31872537 34.86987305 87.62133789 C30.66818775 93.52070504 30.66818775 93.52070504 27.0625 94.57421875 C23.7056158 94.39754063 21.09832092 94.1957113 18.1875 92.44921875 C16.29678837 89.29803271 16.00276481 87.27780032 16.0625 83.57421875 C17.11962891 81.57421875 17.11962891 81.57421875 18.6015625 79.44921875 C19.14901123 78.66144043 19.69645996 77.87366211 20.26049805 77.06201172 C23.90808876 72.02625106 27.66641765 67.07358954 31.46679688 62.15234375 C32.37848633 60.94191406 32.37848633 60.94191406 33.30859375 59.70703125 C33.86216553 58.98402832 34.4157373 58.26102539 34.98608398 57.51611328 C35.34130127 56.87528809 35.69651855 56.23446289 36.0625 55.57421875 C34.86480322 51.98112841 33.5948211 51.15328622 30.625 48.88671875 C29.82191406 48.26410156 29.01882812 47.64148438 28.19140625 47 C26.21258209 45.38873274 26.21258209 45.38873274 24.0625 45.57421875 C22.53291558 47.29994166 22.53291558 47.29994166 20.98046875 49.5546875 C20.37783203 50.38935547 19.77519531 51.22402344 19.15429688 52.08398438 C18.52587891 52.96763672 17.89746094 53.85128906 17.25 54.76171875 C7.18370841 68.86714928 7.18370841 68.86714928 2.0625 70.57421875 C-1.58710575 70.57421875 -3.11169927 69.85055823 -5.9375 67.57421875 C-7.70956608 65.23831346 -7.94286072 63.96197737 -7.90234375 61.03125 C-6.46568483 55.88370692 -3.36484017 52.26159006 -0.125 48.07421875 C1.13263673 46.41882383 2.38917402 44.76259298 3.64453125 43.10546875 C4.23572754 42.32945312 4.82692383 41.5534375 5.43603516 40.75390625 C7.42315464 38.09089172 9.2629143 35.366523 11.0625 32.57421875 C8.87815024 30.67465245 6.69017717 28.77954664 4.5 26.88671875 C3.89091797 26.35626953 3.28183594 25.82582031 2.65429688 25.27929688 C-4.79683939 18.23339269 -4.79683939 18.23339269 -14.0625 15.01171875 C-19.99364209 15.87269099 -22.30720926 18.81402975 -26 23.19921875 C-40.69892484 40.20076486 -63.01117353 52.02058875 -85.53390503 53.7766571 C-88.23258327 53.86799051 -90.92479086 53.90364667 -93.625 53.91015625 C-95.09972778 53.92014145 -95.09972778 53.92014145 -96.60424805 53.93032837 C-98.66811267 53.94038391 -100.73200934 53.94514761 -102.79589844 53.94482422 C-105.92958526 53.94920768 -109.06187296 53.98563198 -112.1953125 54.0234375 C-114.21353692 54.02930536 -116.23176793 54.03327496 -118.25 54.03515625 C-119.63481567 54.0567128 -119.63481567 54.0567128 -121.04760742 54.07870483 C-130.60573076 54.0124675 -138.08354814 51.02216487 -145.07421875 44.5078125 C-147.52579875 41.96372004 -149.75857301 39.27329628 -151.90625 36.46875 C-153.92256833 34.5881454 -155.60355412 33.65135698 -158.06445312 32.45581055 C-158.78862427 32.10165573 -159.51279541 31.74750092 -160.25891113 31.38261414 C-160.81284546 31.11584366 -161.36677979 30.84907318 -161.9375 30.57421875 C-159.92205543 36.07350323 -157.89525678 41.56842522 -155.85839844 47.05981445 C-155.16883438 48.92360116 -154.48224037 50.78848979 -153.79882812 52.65454102 C-147.390919 71.20981219 -147.390919 71.20981219 -136.125 87.01171875 C-122.79224931 101.1652544 -111.40722977 118.90820657 -110.83984375 139.0390625 C-110.88818359 140.29396484 -110.88818359 140.29396484 -110.9375 141.57421875 C-110.35258789 141.55327148 -109.76767578 141.53232422 -109.16503906 141.51074219 C-106.50603535 141.4274176 -103.84730645 141.37550978 -101.1875 141.32421875 C-100.26710938 141.29070312 -99.34671875 141.2571875 -98.3984375 141.22265625 C-91.60262196 141.12416617 -91.60262196 141.12416617 -88.328125 143.33984375 C-86.87773496 145.67024572 -86.39504455 146.85707009 -86.4375 149.57421875 C-86.42203125 150.56421875 -86.42203125 150.56421875 -86.40625 151.57421875 C-87.20046147 154.56419133 -88.50825304 155.6723769 -90.9375 157.57421875 C-93.55868329 157.94876856 -95.75319862 158.08233071 -98.36816406 158.02832031 C-99.48094727 158.02919647 -99.48094727 158.02919647 -100.61621094 158.03009033 C-103.06232902 158.027309 -105.50722047 157.99621661 -107.953125 157.96484375 C-109.65134007 157.95738149 -111.34956376 157.95168848 -113.04779053 157.94769287 C-117.5130601 157.93243526 -121.97780753 157.89315264 -126.44287109 157.84887695 C-131.80257375 157.80072449 -137.1624512 157.78239081 -142.52230835 157.75906372 C-150.66106848 157.72030136 -158.79868343 157.64364941 -166.9375 157.57421875 C-166.9375 176.05421875 -166.9375 194.53421875 -166.9375 213.57421875 C-127.6675 213.57421875 -88.3975 213.57421875 -47.9375 213.57421875 C-47.9375 202.68421875 -47.9375 191.79421875 -47.9375 180.57421875 C-44.9375 174.57421875 -44.9375 174.57421875 -42.9375 173.57421875 C-36.19340416 173.03897305 -31.27654511 174.55542713 -25.046875 177.02734375 C-24.07171936 177.40163513 -23.09656372 177.77592651 -22.09185791 178.16156006 C-18.95209493 179.37000033 -15.81978046 180.59653233 -12.6875 181.82421875 C-10.75568527 182.57154654 -8.82339498 183.31764621 -6.890625 184.0625 C-5.89212524 184.44970215 -4.89362549 184.8369043 -3.86486816 185.23583984 C-1.6652296 186.08249508 0.53894202 186.91743552 2.7467041 187.74267578 C9.6857089 190.36756752 16.45911784 193.18566427 23.19411087 196.30065536 C57.30746255 211.96394337 88.06159605 215.26137378 124.91836143 214.23397613 C133.93593157 213.98570188 142.9557717 213.89235001 151.97610474 213.80226898 C158.4331214 213.73702915 164.88694357 213.64845357 171.34228516 213.48156738 C173.63964712 213.43621233 175.93701033 213.39092059 178.234375 213.34570312 C179.27908966 213.30925186 180.32380432 213.2728006 181.400177 213.23524475 C188.43401052 213.12505308 188.43401052 213.12505308 191.70605469 215.46350098 C193.1613855 217.72809107 193.60422634 218.90373299 193.5625 221.57421875 C193.57796875 222.56421875 193.57796875 222.56421875 193.59375 223.57421875 C192.82205613 226.47941919 191.34892295 227.66442041 189.0625 229.57421875 C186.65622711 230.10551643 186.65622711 230.10551643 183.9263916 230.14944458 C182.88749283 230.17517548 181.84859406 230.20090637 180.7782135 230.22741699 C179.64290695 230.23503052 178.5076004 230.24264404 177.33789062 230.25048828 C176.13692245 230.27356049 174.93595428 230.29663269 173.69859314 230.32040405 C170.39669711 230.37733171 167.09582211 230.41548612 163.79360771 230.44083643 C161.71346342 230.45707251 159.63339578 230.47744023 157.55329895 230.49886703 C150.99760317 230.56444783 144.44209867 230.61212659 137.88611937 230.63649476 C131.14717637 230.66188518 124.41119218 230.72411133 117.67333984 230.85009766 C56.08085836 231.97656062 56.08085836 231.97656062 27.80078125 217.42657471 C21.66078358 214.30731527 15.17557807 212.02435945 8.734375 209.61328125 C6.38928264 208.70528225 4.04549688 207.79390041 1.703125 206.87890625 C0.57197266 206.43901367 -0.55917969 205.99912109 -1.72460938 205.54589844 C-11.12890625 201.88867188 -20.53320312 198.23144531 -29.9375 194.57421875 C-29.95151855 195.9514209 -29.95151855 195.9514209 -29.96582031 197.35644531 C-30.00989931 200.77127153 -30.07153732 204.18484983 -30.14501953 207.59912109 C-30.17320088 209.07524071 -30.19442966 210.55151044 -30.20849609 212.02783203 C-30.22996698 214.15344932 -30.27663043 216.27726754 -30.328125 218.40234375 C-30.34907227 219.68012695 -30.37001953 220.95791016 -30.39160156 222.27441406 C-31.04225638 226.20744203 -31.83932098 227.15302771 -34.9375 229.57421875 C-37.66741943 230.07758331 -37.66741943 230.07758331 -40.85839844 230.08215332 C-42.06975464 230.09343262 -43.28111084 230.10471191 -44.5291748 230.11633301 C-45.8684106 230.10855609 -47.20764403 230.10036343 -48.546875 230.09179688 C-49.95968345 230.09721803 -51.37248624 230.10434066 -52.78527832 230.11303711 C-56.62003943 230.13127458 -60.45437015 230.12420146 -64.28913879 230.11152077 C-68.30182049 230.10139518 -72.31446529 230.11078521 -76.32714844 230.11706543 C-83.06582253 230.12434314 -89.80432128 230.11475097 -96.54296875 230.09570312 C-104.33431424 230.07393402 -112.12524105 230.08098532 -119.91657639 230.10300875 C-126.60544799 230.1211593 -133.29419354 230.1237228 -139.98308182 230.11325407 C-143.97833367 230.1070172 -147.97338871 230.10618869 -151.96862793 230.11940002 C-155.72476301 230.13095304 -159.4803582 230.12294356 -163.23643494 230.099823 C-164.6150981 230.09453286 -165.99380668 230.09605499 -167.37245178 230.10487366 C-169.25381856 230.11579873 -171.13528461 230.09967082 -173.01660156 230.08215332 C-174.59613617 230.07989117 -174.59613617 230.07989117 -176.20758057 230.07758331 C-179.64497882 229.4437681 -180.80398575 228.29178724 -182.9375 225.57421875 C-184.17230492 221.86980398 -184.08226549 218.44296394 -184.07794189 214.58512878 C-184.08091302 213.76192133 -184.08388414 212.93871387 -184.0869453 212.09056073 C-184.09564149 209.32232651 -184.09714132 206.55413549 -184.09863281 203.78588867 C-184.10326032 201.80505785 -184.10828489 199.82422793 -184.11367798 197.84339905 C-184.12681017 192.45491627 -184.1332485 187.06644595 -184.13768864 181.67794967 C-184.14061795 178.31278232 -184.14472249 174.9476184 -184.14919281 171.58245277 C-184.1628697 161.05750487 -184.1725355 150.53256477 -184.1763947 140.00760859 C-184.18087651 127.85083068 -184.19842933 115.69416514 -184.2273953 103.53742141 C-184.2489983 94.14541047 -184.25909824 84.75343118 -184.26043582 75.36139566 C-184.26148481 69.7497131 -184.26741264 64.13813616 -184.28525543 58.52647972 C-184.30171225 53.24795564 -184.3039032 47.96961684 -184.29511642 42.69107628 C-184.29434478 40.7536825 -184.29870552 38.81627886 -184.30857468 36.87891006 C-184.32125889 34.23380513 -184.31543662 31.58935985 -184.30499268 28.94425964 C-184.31304908 28.1778115 -184.32110548 27.41136335 -184.32940602 26.6216895 C-184.28559966 21.87704864 -183.47446965 18.59555665 -180.9375 14.57421875 C-173.79674015 11.00383883 -160.71458518 12.78006238 -153.12890625 14.375 C-144.75312534 17.54450877 -139.0896942 23.43133494 -133.75 30.44921875 C-130.32518795 34.46451563 -125.99390652 35.74789265 -120.9375 36.57421875 C-93.93428268 38.0779075 -66.61501719 35.57378064 -45.5 17.07421875 C-42.58842735 14.31913128 -39.94125287 11.46270678 -37.375 8.38671875 C-28.75504381 -1.82649949 -12.30970063 -7.56091526 0 0 Z M-166.9375 68.57421875 C-166.9375 92.66421875 -166.9375 116.75421875 -166.9375 141.57421875 C-154.0675 141.57421875 -141.1975 141.57421875 -127.9375 141.57421875 C-129.70755152 125.64375503 -135.17312139 112.85289223 -146.828125 101.78515625 C-155.61335349 92.57693528 -162.11884082 80.63407726 -165.9375 68.57421875 C-166.2675 68.57421875 -166.5975 68.57421875 -166.9375 68.57421875 Z M105.0625 103.57421875 C105.04791748 104.83081299 105.03333496 106.08740723 105.01831055 107.38208008 C104.96038396 112.03959767 104.88315089 116.69662891 104.80004883 121.35375977 C104.7667729 123.3702811 104.73874932 125.38689617 104.71606445 127.40356445 C104.68256744 130.30069975 104.63025456 133.19697393 104.57421875 136.09375 C104.56463387 137.44857231 104.56463387 137.44857231 104.55485535 138.83076477 C104.53506119 139.67140976 104.51526703 140.51205475 104.49487305 141.37817383 C104.48376999 142.11763748 104.47266693 142.85710114 104.46122742 143.61897278 C103.94280421 146.16117292 103.0829003 146.97708252 101.0625 148.57421875 C99.18127441 149.62265015 99.18127441 149.62265015 97.04101562 150.57958984 C96.23587524 150.94361908 95.43073486 151.30764832 94.60119629 151.68270874 C93.73248901 152.06714142 92.86378174 152.4515741 91.96875 152.84765625 C91.06684937 153.25327789 90.16494873 153.65889954 89.23571777 154.07681274 C86.34748104 155.37405208 83.45512137 156.6617904 80.5625 157.94921875 C78.64554962 158.80796071 76.72887973 159.66732908 74.8125 160.52734375 C71.16287472 162.16432196 67.51182441 163.79804418 63.859375 165.42871094 C58.58253645 167.7861014 53.31770684 170.168951 48.0625 172.57421875 C55.21474312 179.72646187 67.70688726 182.29973425 77.48617923 182.44809067 C79.70459026 182.44508425 81.92086302 182.4075263 84.13891602 182.36889648 C85.76701776 182.36691513 87.39512572 182.36804359 89.02322388 182.37199402 C93.38421652 182.37397791 97.74382288 182.33323052 102.10449719 182.28397632 C106.68343643 182.23979986 111.262418 182.23607269 115.84153748 182.22779846 C124.48631085 182.2061628 133.13045419 182.14888637 141.77495188 182.07835203 C151.627548 181.99972945 161.48017644 181.96152737 171.33300889 181.92648399 C191.57652234 181.85359096 211.81947126 181.73070599 232.0625 181.57421875 C232.16291887 177.66406247 232.23468019 173.75442624 232.28222656 169.84326172 C232.3117475 167.87440534 232.36262677 165.90590577 232.4140625 163.9375 C232.54801938 150.74274733 229.45098663 140.79606535 221.0625 130.57421875 C220.20205078 129.50880859 220.20205078 129.50880859 219.32421875 128.421875 C210.63716039 118.73031738 199.99394233 115.38252297 187.53515625 113.63671875 C185.84896431 113.38924896 185.84896431 113.38924896 184.12870789 113.13677979 C180.44184189 112.60164314 176.75280917 112.08504942 173.0625 111.57421875 C171.16497986 111.31094788 171.16497986 111.31094788 169.22912598 111.0423584 C161.29781093 109.94945771 153.36233037 108.8917598 145.42358398 107.85449219 C141.99854336 107.40686394 138.57445621 106.95232299 135.15054035 106.49618149 C131.82616286 106.05450376 128.5009312 105.61941786 125.17578125 105.18359375 C123.35086906 104.93993073 123.35086906 104.93993073 121.48908997 104.69134521 C115.96994664 103.97643446 110.62908409 103.36532608 105.0625 103.57421875 Z " fill="#000000" transform="translate(190.9375,234.42578125)"/>
<path d="M0 0 C0.86460846 0.25615082 1.72921692 0.51230164 2.62002563 0.7762146 C5.88331645 1.75122741 9.13900459 2.74936265 12.39453125 3.75 C13.81615493 4.18512075 15.23781853 4.62011106 16.65951538 5.05499268 C27.94969183 8.51207995 39.22698614 12.01038902 50.50244141 15.51513672 C55.94833635 17.20742911 61.39503734 18.89712559 66.84193802 20.58617783 C71.33622862 21.97992563 75.82995503 23.37543347 80.32244873 24.77496338 C88.42499931 27.29669031 96.5312938 29.80162054 104.66167259 32.23237801 C108.22837415 33.29883475 111.7926027 34.3734403 115.35687637 35.44797897 C117.02533469 35.94806965 118.69510812 36.4437981 120.36629868 36.93468094 C137.14628376 41.86425463 152.13361925 48.22468141 161.140625 64.1953125 C169.20888141 80.63344237 167.86397281 95.33725148 162.64453125 112.375 C162.41701172 113.15794434 162.18949219 113.94088867 161.95507812 114.74755859 C160.62823777 118.78557608 159.98245079 120.36352497 156.31640625 122.7734375 C153.39453125 123.75 153.39453125 123.75 151.39453125 123.75 C151.34337158 124.51948975 151.29221191 125.28897949 151.23950195 126.08178711 C150.6382348 134.5369084 149.72421076 142.91412123 148.58203125 151.3125 C148.42927734 152.55580078 148.27652344 153.79910156 148.11914062 155.08007812 C147.95607422 156.27181641 147.79300781 157.46355469 147.625 158.69140625 C147.48473389 159.76076416 147.34446777 160.83012207 147.19995117 161.93188477 C146.23453629 165.3098126 145.18905304 166.64518218 142.39453125 168.75 C137.76229541 170.33748654 134.0328952 169.07148907 129.54052734 167.65112305 C128.76762989 167.41676104 127.99473244 167.18239902 127.19841385 166.94093513 C124.64308951 166.16302516 122.09316998 165.36874764 119.54296875 164.57421875 C117.73811764 164.02098669 115.93296701 163.46873089 114.12753296 162.91740417 C109.45219794 161.48647042 104.78129988 160.04160068 100.11161804 158.59233856 C96.72690707 157.54302627 93.34021392 156.50022383 89.95333481 155.45793533 C81.0150885 152.70695515 72.08327355 149.93548676 63.15307617 147.1585083 C54.13377306 144.35385814 45.11218951 141.55656377 36.08984375 138.76171875 C35.16467705 138.47511383 34.23951035 138.18850891 33.28630829 137.89321899 C18.91362364 133.44240064 4.52945323 129.03006215 -9.86328125 124.64453125 C-10.80608318 124.35725222 -11.74888512 124.06997318 -12.72025681 123.77398872 C-21.83753943 120.99655061 -30.95611018 118.22336836 -40.07613945 115.45496273 C-43.41716796 114.44055677 -46.75785607 113.42503262 -50.09850693 112.40938377 C-52.36152175 111.72195205 -54.62508975 111.03636648 -56.88870239 110.35090637 C-63.08604314 108.47074762 -69.27683792 106.56845842 -75.44335938 104.58935547 C-76.37942017 104.2902829 -77.31548096 103.99121033 -78.27990723 103.68307495 C-81.56507925 102.36497965 -83.08603669 100.94080733 -84.60546875 97.75 C-85.26495108 92.15615838 -83.39208893 88.63666281 -80.81640625 83.8671875 C-80.03240793 82.35554351 -79.24855814 80.84382247 -78.46484375 79.33203125 C-77.22061313 76.96828884 -75.97114122 74.60744505 -74.71777344 72.24853516 C-73.50807156 69.96148703 -72.31781217 67.66509645 -71.12890625 65.3671875 C-70.74672943 64.66294647 -70.36455261 63.95870544 -69.97079468 63.23312378 C-67.91370814 59.50917728 -67.91370814 59.50917728 -68.33422852 55.46801758 C-68.75373779 54.90107178 -69.17324707 54.33412598 -69.60546875 53.75 C-71.31014529 47.26570408 -69.70229506 42.54814275 -67.54296875 36.4375 C-67.2186084 35.50196289 -66.89424805 34.56642578 -66.56005859 33.60253906 C-61.20757765 18.61140056 -52.65852802 7.55686215 -38.140625 0.5625 C-26.05861652 -4.31775027 -12.30012888 -3.78207399 0 0 Z M-39.60546875 21.75 C-46.34341401 27.93731748 -49.40232864 34.80533827 -50.60546875 43.75 C-35.41011624 48.70943119 -20.1792758 53.53323701 -4.88671875 58.18359375 C-3.71864874 58.53881985 -3.71864874 58.53881985 -2.52698135 58.90122223 C2.41897941 60.40457909 7.36583108 61.90499022 12.3128891 63.40473175 C20.39603105 65.85558532 28.47787063 68.31071461 36.55859375 70.76953125 C37.48104008 71.05017174 38.4034864 71.33081223 39.35388565 71.61995697 C53.02656509 75.78224408 66.67961573 80.00483509 80.32053375 84.27001381 C83.26667277 85.19099843 86.21319793 86.11073682 89.15985107 87.03007507 C91.08899737 87.63208459 93.01813562 88.23411993 94.94726562 88.83618164 C95.89080021 89.13064147 96.83433479 89.4251013 97.80646133 89.72848415 C103.41625006 91.48037894 109.02299394 93.24165625 114.6278286 95.0093317 C118.10410855 96.10347765 121.58292543 97.18937436 125.06245804 98.2731266 C126.67986916 98.77892545 128.29614934 99.28835679 129.91120529 99.80162621 C132.11492652 100.50161169 134.32218855 101.18904106 136.53076172 101.87353516 C137.76680145 102.26223785 139.00284119 102.65094055 140.27633667 103.05142212 C143.22000333 103.71090002 144.63365325 103.83479728 147.39453125 102.75 C150.51356161 92.35323214 151.16938838 83.62164443 146.76953125 73.5 C138.80970784 59.42398875 123.89169207 55.70354546 109.4140625 51.390625 C107.73815715 50.88394801 106.06250884 50.37642015 104.38710022 49.86810303 C99.9189365 48.51469815 95.4476553 47.17189093 90.97566986 45.83117676 C86.34340046 44.44051687 81.71395356 43.04053461 77.08447266 41.640625 C76.16307747 41.36202385 75.24168228 41.0834227 74.29236603 40.79637909 C72.43176614 40.23378514 70.57117551 39.67116056 68.71059418 39.10850525 C65.92144679 38.26549557 63.13193034 37.42371648 60.34234619 36.58215332 C49.22015033 33.2247013 38.11317407 29.82249897 27.0234375 26.359375 C25.72364424 25.95402019 24.42384476 25.54868534 23.1240387 25.14337158 C18.35587758 23.65520717 13.58816735 22.1657831 8.82437134 20.66369629 C5.65939574 19.66596809 2.49205824 18.67608966 -0.67578125 17.6875 C-1.57723373 17.40018005 -2.47868622 17.11286011 -3.40745544 16.8168335 C-16.74183314 12.67587651 -28.15777213 12.998246 -39.60546875 21.75 Z M-49.60546875 61.75 C-51.19379763 64.72652832 -52.77517744 67.70669771 -54.35546875 70.6875 C-54.79890625 71.51830078 -55.24234375 72.34910156 -55.69921875 73.20507812 C-58.5691241 78.62835514 -61.19345878 84.10804599 -63.60546875 89.75 C-61.81526265 90.42057887 -60.02325386 91.0863469 -58.23046875 91.75 C-57.23273438 92.12125 -56.235 92.4925 -55.20703125 92.875 C-52.74698814 93.85626277 -52.74698814 93.85626277 -50.60546875 93.75 C-50.43942139 93.2152002 -50.27337402 92.68040039 -50.10229492 92.12939453 C-49.34355664 89.70764298 -48.5684979 87.29142417 -47.79296875 84.875 C-47.53193359 84.03324219 -47.27089844 83.19148438 -47.00195312 82.32421875 C-46.74091797 81.51855469 -46.47988281 80.71289062 -46.2109375 79.8828125 C-45.85745239 78.76737061 -45.85745239 78.76737061 -45.49682617 77.62939453 C-44.60546875 75.75 -44.60546875 75.75 -41.60546875 73.75 C-37.90002288 73.55149397 -35.13541488 73.57335129 -31.60546875 74.75 C-30.12275217 82.0400232 -31.27851072 87.02271487 -33.6953125 94.02734375 C-34.71115011 96.58767756 -34.71115011 96.58767756 -34.60546875 98.75 C-32.67190093 99.44848264 -30.73344577 100.13344814 -28.79296875 100.8125 C-27.71402344 101.19535156 -26.63507813 101.57820313 -25.5234375 101.97265625 C-22.57364646 103.04482689 -22.57364646 103.04482689 -19.60546875 101.75 C-18.63895458 99.28067415 -17.83668479 96.91302729 -17.10546875 94.375 C-14.57888998 85.70312963 -14.57888998 85.70312963 -11.60546875 83.75 C-8.14610128 83.03859782 -4.77537706 83.16504585 -1.60546875 84.75 C0.89651362 89.75396474 -0.53503657 94.9372258 -2.10546875 100 C-2.38390625 100.80953125 -2.66234375 101.6190625 -2.94921875 102.453125 C-3.78861617 104.99288496 -3.78861617 104.99288496 -3.60546875 108.75 C1.01453125 110.07 5.63453125 111.39 10.39453125 112.75 C10.79285156 111.47382813 11.19117188 110.19765625 11.6015625 108.8828125 C12.13616146 107.21336311 12.67134832 105.54410189 13.20703125 103.875 C13.59858398 102.61236328 13.59858398 102.61236328 13.99804688 101.32421875 C14.38959961 100.11572266 14.38959961 100.11572266 14.7890625 98.8828125 C15.02471924 98.13918457 15.26037598 97.39555664 15.50317383 96.62939453 C16.39453125 94.75 16.39453125 94.75 19.39453125 92.75 C23.18559292 92.33642964 25.5241882 92.27131132 28.89453125 94.125 C32.16124388 99.8417471 29.44389006 106.86927607 27.83203125 112.875 C27.36095247 114.50236305 26.88474174 116.12829738 26.39453125 117.75 C28.32809907 118.44848264 30.26655423 119.13344814 32.20703125 119.8125 C33.82544922 120.38677734 33.82544922 120.38677734 35.4765625 120.97265625 C38.42635354 122.04482689 38.42635354 122.04482689 41.39453125 120.75 C42.38809198 118.2793653 43.20769899 115.91847479 43.95703125 113.375 C46.16912141 106.08811475 46.16912141 106.08811475 48.39453125 102.75 C55.17578125 101.21875 55.17578125 101.21875 58.83203125 102.8125 C60.9683049 105.46147932 61.10964347 107.36745916 61.39453125 110.75 C60.58203125 114.0390625 60.58203125 114.0390625 59.39453125 117.375 C57.84731551 121.61198865 57.84731551 121.61198865 57.46484375 126.0390625 C58.29440325 127.96360379 58.29440325 127.96360379 60.57421875 128.796875 C61.46367187 129.02890625 62.353125 129.2609375 63.26953125 129.5 C64.59597656 129.86351562 64.59597656 129.86351562 65.94921875 130.234375 C68.4672589 130.85316279 68.4672589 130.85316279 71.39453125 130.75 C71.99201172 128.94402344 71.99201172 128.94402344 72.6015625 127.1015625 C73.13617665 125.52585764 73.67136271 123.95034673 74.20703125 122.375 C74.46806641 121.5809375 74.72910156 120.786875 74.99804688 119.96875 C75.25908203 119.20820313 75.52011719 118.44765625 75.7890625 117.6640625 C76.02471924 116.9623291 76.26037598 116.2605957 76.50317383 115.53759766 C77.39453125 113.75 77.39453125 113.75 80.39453125 111.75 C83.11543748 111.27822997 85.67006987 111.30159906 88.39453125 111.75 C90.39453125 113.3125 90.39453125 113.3125 91.39453125 115.75 C91.70194642 120.97605797 90.91559283 125.19651669 89.39453125 130.1875 C88.83765625 132.04181641 88.83765625 132.04181641 88.26953125 133.93359375 C87.98078125 134.86300781 87.69203125 135.79242188 87.39453125 136.75 C89.51845631 137.4200834 91.64370649 138.08596797 93.76953125 138.75 C95.54457031 139.306875 95.54457031 139.306875 97.35546875 139.875 C100.18776564 140.84222606 100.18776564 140.84222606 102.39453125 140.75 C102.56057861 140.2152002 102.72662598 139.68040039 102.89770508 139.12939453 C103.65644336 136.70764298 104.4315021 134.29142417 105.20703125 131.875 C105.46806641 131.03324219 105.72910156 130.19148438 105.99804688 129.32421875 C106.25908203 128.51855469 106.52011719 127.71289062 106.7890625 126.8828125 C107.02471924 126.13918457 107.26037598 125.39555664 107.50317383 124.62939453 C108.39453125 122.75 108.39453125 122.75 111.39453125 120.75 C115.41125006 120.13876018 116.93989948 120.44046348 120.33203125 122.75 C122.39453125 125.75 122.39453125 125.75 122.39453125 129.3125 C122.10046315 130.7999707 121.76058929 132.27859025 121.39453125 133.75 C121.14574219 134.80058594 120.89695312 135.85117187 120.640625 136.93359375 C119.92195582 139.88117892 119.1716776 142.81737227 118.39453125 145.75 C120.18473735 146.42057887 121.97674614 147.0863469 123.76953125 147.75 C125.26613281 148.306875 125.26613281 148.306875 126.79296875 148.875 C129.25301186 149.85626277 129.25301186 149.85626277 131.39453125 149.75 C132.71453125 139.52 134.03453125 129.29 135.39453125 118.75 C116.18761754 112.23708912 96.86133923 106.20351971 77.4701004 100.26947403 C73.197977 98.96139701 68.92690964 97.64988102 64.65576172 96.33862305 C58.53260832 94.45907896 52.40917459 92.58045391 46.28532791 90.70316982 C31.96638781 86.31364022 17.6512507 81.91178109 3.33713627 77.50654411 C-0.79991314 76.23335727 -4.93713455 74.96073196 -9.07454967 73.68873405 C-11.0093901 73.09385718 -12.94418096 72.49881943 -14.87895203 71.90371704 C-17.28489078 71.1636993 -19.6909034 70.42392167 -22.09700012 69.68441772 C-27.02149392 68.16921295 -31.94382489 66.64853115 -36.85644531 65.09521484 C-37.61768707 64.85477951 -38.37892883 64.61434418 -39.16323853 64.36662292 C-41.08192657 63.75866355 -42.99928921 63.1465253 -44.91650391 62.53393555 C-47.45866177 61.6567046 -47.45866177 61.6567046 -49.60546875 61.75 Z " fill="#000000" transform="translate(337.60546875,146.25)"/>
<path d="M0 0 C0.66 -0.0103125 1.32 -0.020625 2 -0.03125 C5.00282451 0.76637526 6.10003143 2.04880598 8 4.5 C8.91995715 7.08208831 9.6827997 9.54917549 10.375 12.1875 C13.07999138 21.48721842 16.51084433 28.82158598 25.01953125 34.09375 C29.80131173 36.34989807 34.81388876 37.91253286 39.87988281 39.40893555 C40.64010742 39.6387915 41.40033203 39.86864746 42.18359375 40.10546875 C42.86993896 40.30293701 43.55628418 40.50040527 44.26342773 40.70385742 C46 41.5 46 41.5 48 44.5 C48.67427718 51.57991038 48.67427718 51.57991038 46.45703125 54.60546875 C43.3140299 57.02892766 40.08290654 57.88578259 36.3125 58.875 C27.01278158 61.57999138 19.67841402 65.01084433 14.40625 73.51953125 C12.15010193 78.30131173 10.58746714 83.31388876 9.09106445 88.37988281 C8.8612085 89.14010742 8.63135254 89.90033203 8.39453125 90.68359375 C8.19706299 91.36993896 7.99959473 92.05628418 7.79614258 92.76342773 C7 94.5 7 94.5 4 96.5 C-3.07991038 97.17427718 -3.07991038 97.17427718 -6.10546875 94.95703125 C-8.52892766 91.8140299 -9.38578259 88.58290654 -10.375 84.8125 C-13.08456455 75.49705909 -16.52286564 68.19643431 -25.0234375 62.89453125 C-29.75247066 60.6789606 -34.75023612 59.20073242 -39.79199219 57.85473633 C-43.87124985 56.66820896 -45.55696415 56.13398513 -48.06640625 52.54296875 C-49.33037231 48.42317981 -48.82789198 46.375131 -47 42.5 C-43.04118133 40.16589882 -39.10732376 38.86935764 -34.6875 37.6875 C-25.87312305 35.01708512 -19.26319061 31.30239366 -14.3359375 23.33984375 C-12.33157288 19.07910376 -11.01696422 14.63434947 -9.82324219 10.08447266 C-8.32333594 4.60035719 -6.31524862 -0.09867576 0 0 Z M-1 34.5 C-2.5109523 36.05470574 -3.96023804 37.66977805 -5.375 39.3125 C-8.07113988 42.43695642 -10.5916726 45.15774761 -14 47.5 C-12.86819855 50.89540434 -11.89642801 51.65357852 -9.1875 53.875 C-6.03968063 56.52727714 -3.55083424 59.2624027 -1 62.5 C-0.34 62.5 0.32 62.5 1 62.5 C2.60059293 60.87907408 2.60059293 60.87907408 4.25 58.8125 C7.25954469 55.26035397 10.33524535 52.36029631 14 49.5 C12.86819855 46.10459566 11.89642801 45.34642148 9.1875 43.125 C6.03968063 40.47272286 3.55083424 37.7375973 1 34.5 C0.34 34.5 -0.32 34.5 -1 34.5 Z " fill="#000000" transform="translate(72,143.5)"/>
<path d="M0 0 C0.66 -0.0103125 1.32 -0.020625 2 -0.03125 C5.00282451 0.76637526 6.10003143 2.04880598 8 4.5 C8.91995715 7.08208831 9.6827997 9.54917549 10.375 12.1875 C13.07999138 21.48721842 16.51084433 28.82158598 25.01953125 34.09375 C29.80131173 36.34989807 34.81388876 37.91253286 39.87988281 39.40893555 C40.64010742 39.6387915 41.40033203 39.86864746 42.18359375 40.10546875 C42.86993896 40.30293701 43.55628418 40.50040527 44.26342773 40.70385742 C46 41.5 46 41.5 48 44.5 C48.67427718 51.57991038 48.67427718 51.57991038 46.45703125 54.60546875 C43.3140299 57.02892766 40.08290654 57.88578259 36.3125 58.875 C27.01278158 61.57999138 19.67841402 65.01084433 14.40625 73.51953125 C12.15010193 78.30131173 10.58746714 83.31388876 9.09106445 88.37988281 C8.8612085 89.14010742 8.63135254 89.90033203 8.39453125 90.68359375 C8.19706299 91.36993896 7.99959473 92.05628418 7.79614258 92.76342773 C7 94.5 7 94.5 4 96.5 C-3.07991038 97.17427718 -3.07991038 97.17427718 -6.10546875 94.95703125 C-8.52892766 91.8140299 -9.38578259 88.58290654 -10.375 84.8125 C-13.08456455 75.49705909 -16.52286564 68.19643431 -25.0234375 62.89453125 C-29.75247066 60.6789606 -34.75023612 59.20073242 -39.79199219 57.85473633 C-43.87124985 56.66820896 -45.55696415 56.13398513 -48.06640625 52.54296875 C-49.33037231 48.42317981 -48.82789198 46.375131 -47 42.5 C-43.04118133 40.16589882 -39.10732376 38.86935764 -34.6875 37.6875 C-25.87312305 35.01708512 -19.26319061 31.30239366 -14.3359375 23.33984375 C-12.33157288 19.07910376 -11.01696422 14.63434947 -9.82324219 10.08447266 C-8.32333594 4.60035719 -6.31524862 -0.09867576 0 0 Z M-1 34.5 C-2.5109523 36.05470574 -3.96023804 37.66977805 -5.375 39.3125 C-8.07113988 42.43695642 -10.5916726 45.15774761 -14 47.5 C-12.86819855 50.89540434 -11.89642801 51.65357852 -9.1875 53.875 C-6.03968063 56.52727714 -3.55083424 59.2624027 -1 62.5 C-0.34 62.5 0.32 62.5 1 62.5 C2.60059293 60.87907408 2.60059293 60.87907408 4.25 58.8125 C7.25954469 55.26035397 10.33524535 52.36029631 14 49.5 C12.86819855 46.10459566 11.89642801 45.34642148 9.1875 43.125 C6.03968063 40.47272286 3.55083424 37.7375973 1 34.5 C0.34 34.5 -0.32 34.5 -1 34.5 Z " fill="#000000" transform="translate(208,47.5)"/>
</svg>
