<?xml version="1.0" encoding="UTF-8"?>
<svg version="1.1" viewBox="0 0 1600 1600" width="1280" height="1280" xmlns="http://www.w3.org/2000/svg">
<path transform="translate(158 -.383)" d="m0 0c2.28-0.00374 4.56-0.00879 6.83-0.015 6.25-0.0133 12.5-0.00804 18.8 3.33e-4 6.1 0.00521 12.2-0.00374 18.3-0.0122 12.6-0.017 25.2-0.0199 37.9-0.0149 12.8 0.00501 25.6 0.0035 38.4-0.00588 0.809-5.88e-4 1.62-0.00118 2.45-0.00178 3.29-0.00242 6.59-0.00488 9.88-0.00739 33.4-0.0255 66.8-0.0315 100-0.0296 4.62 2.6e-4 9.23 4.98e-4 13.8 7.15e-4 1.38 6.61e-5 1.38 6.61e-5 2.78 1.33e-4 20.3 8.64e-4 40.7-0.00393 61-0.00982 4.64-0.00134 9.29-0.00264 13.9-0.00395 1.86-5.25e-4 3.73-0.00105 5.59-0.00157 1.39-3.9e-4 1.39-3.9e-4 2.8-7.87e-4 1.87-5.26e-4 3.74-0.00105 5.61-0.00158 53-0.015 106-0.0238 159-0.019 1.47 1.29e-4 1.47 1.29e-4 2.97 2.6e-4 10.9 9.59e-4 21.9 2e-3 32.8 0.00306 3 2.9e-4 5.99 5.79e-4 8.99 8.68e-4 2 1.94e-4 4 3.89e-4 6 5.86e-4 63.2 0.00622 126-0.00864 190-0.0413 15.9-0.00822 31.8-0.0164 47.8-0.0241 0.98-4.76e-4 1.96-9.52e-4 2.97-0.00144 30.2-0.0146 60.4-0.023 90.7-0.0251 1.42-9.95e-5 1.42-9.95e-5 2.88-2.01e-4 20.8-0.00139 41.7-0.00128 62.5 2.1e-4 7.46 5.22e-4 14.9 9.39e-4 22.4 0.00131 1.85 9.32e-5 3.71 1.92e-4 5.56 2.97e-4 29.5 0.00162 59.1-0.0112 88.6-0.0312 29.8-0.02 59.5-0.0237 89.3-0.00537 4.12 0.00253 8.23 0.0049 12.3 0.00716 1.21 6.76e-4 1.21 6.76e-4 2.44 0.00136 12.7 0.00666 25.5-0.00338 38.2-0.0205 12.6-0.0165 25.1-0.0149 37.7 0.0054 6.71 0.0104 13.4 0.0125 20.1-0.00732 6.11-0.0179 12.2-0.0124 18.3 0.011 2.19 0.00441 4.37 6.44e-4 6.56-0.0128 34.9-0.2 68.9 9.54 95.5 32.6l1.58 1.33c27.6 23.3 41.4 56.4 45.4 91.7 0.605 8.01 0.539 16 0.501 24.1 0.00388 2.32 0.00951 4.64 0.0167 6.96 0.0146 6.33 0.00466 12.7-0.00961 19-0.012 6.19-8.77e-4 12.4 0.00751 18.6 0.0167 12.8 0.0146 25.6 0.00201 38.4-0.0127 13-0.0165 25.9-0.00989 38.9 4.16e-4 0.821 8.32e-4 1.64 0.00126 2.49 0.00172 3.34 0.00351 6.69 0.00538 10 0.0174 31.1 0.0152 62.2 6.64e-4 93.2-0.014 29.9-0.021 59.9-0.0183 89.8 1.63e-4 1.88 3.25e-4 3.77 4.86e-4 5.65 6.58e-4 7.57 0.00136 15.1 0.00213 22.7 0.00211 21.1 0.00286 42.3 0.00258 63.4-1.24e-5 0.963-2.48e-5 1.93-3.75e-5 2.92-4.89e-4 30.7-0.00691 61.3-0.0175 92-3.43e-4 0.994-6.87e-4 1.99-0.00104 3.01-0.0056 16.1-0.0115 32.3-0.0175 48.4-0.0236 64-0.0298 128-0.0194 192 6.53e-4 4.05 0.0013 8.1 0.00196 12.1 1.61e-4 1 3.22e-4 2 4.88e-4 3.03 0.00178 11.1 0.0035 22.2 0.00515 33.3 2.24e-4 1.49 2.24e-4 1.49 4.53e-4 3.01 0.00786 52.7 0.00225 105-0.00857 158-0.00155 7.56-0.00306 15.1-0.00457 22.7-5.68e-4 2.82-0.00115 5.64-0.00173 8.46-0.0042 20.6-0.0064 41.2-0.00331 61.8 1.39e-4 0.928 2.77e-4 1.86 4.2e-4 2.81 7.1e-4 4.67 0.00146 9.34 0.00222 14 0.00549 33.8 0.00134 67.6-0.02 101-0.00206 3.33-0.00408 6.66-0.00606 9.99-4.91e-4 0.817-9.82e-4 1.63-0.00149 2.48-0.0075 12.9-0.00501 25.8 0.00166 38.8 0.00635 12.7 0.0019 25.4-0.0139 38.2-0.00815 6.8-0.0113 13.6-0.00143 20.4 0.00892 6.19 0.00386 12.4-0.012 18.6-0.00329 2.22-0.00166 4.43 0.00573 6.65 0.0859 27.8-3.52 54-17.4 78.5-0.328 0.584-0.655 1.17-0.993 1.77-11.1 19.5-26.8 35.6-46 47.2-0.723 0.438-1.45 0.877-2.19 1.33-24.7 14.6-51.3 19.1-79.6 19.1-2.27 0.00405-4.55 0.0094-6.82 0.0159-6.24 0.0141-12.5 0.0097-18.7 0.00217-6.09-0.00441-12.2 0.00535-18.3 0.0146-12.6 0.0187-25.2 0.0231-37.8 0.0197-12.8-0.00338-25.5-2.56e-4 -38.3 0.0107-0.807 6.89e-4 -1.61 0.00138-2.45 0.00209-3.29 0.00283-6.58 0.00569-9.86 0.00861-34.3 0.0304-68.5 0.0396-103 0.0414-3.69 1.94e-4 -7.37 3.98e-4 -11.1 6.1e-4 -0.915 5.1e-5 -1.83 1.02e-4 -2.77 1.55e-4 -20.3 0.00123-40.6 0.0078-60.9 0.0153-8.36 0.00309-16.7 0.00606-25.1 0.00905-1.39 4.98e-4 -1.39 4.98e-4 -2.8 0.00101-52.9 0.019-106 0.0313-159 0.03-1.98-4.73e-5 -3.96-9.45e-5 -5.94-1.42e-4 -8.94-2.2e-4 -17.9-4.85e-4 -26.8-7.62e-4 -3.99-1.23e-4 -7.97-2.44e-4 -12-3.64e-4 -1.99-6.12e-5 -3.99-1.24e-4 -5.98-1.89e-4 -63.1-0.00204-126 0.0199-189 0.0616-15.9 0.0105-31.8 0.0209-47.7 0.0308-1.47 9.13e-4 -1.47 9.13e-4 -2.96 0.00184-30.2 0.0187-60.3 0.0299-90.5 0.0337-0.947 1.2e-4 -1.89 2.4e-4 -2.87 3.63e-4 -20.8 0.00256-41.6 0.00334-62.4 0.00249-7.44-2.89e-4 -14.9-4.46e-4 -22.3-5.36e-4 -1.85-2.37e-5 -3.7-5.44e-5 -5.56-9.19e-5 -29.5-5.28e-4 -58.9 0.0165-88.4 0.0425-29.7 0.026-59.4 0.0325-89.1 0.0127-4.11-0.00274-8.22-0.00527-12.3-0.00767-0.806-4.8e-4 -1.61-9.61e-4 -2.44-0.00146-12.7-0.00704-25.4 0.00597-38.2 0.0275-12.5 0.0208-25.1 0.0198-37.6-0.00358-6.69-0.0119-13.4-0.014-20.1 0.0104-51.7 0.176-51.7 0.176-72.7-6.77-0.818-0.263-1.64-0.527-2.48-0.798-18-5.89-32.9-15.3-47.5-27.2-0.566-0.441-1.13-0.882-1.71-1.34-22.1-17.5-35.6-46.7-41.3-73.7-0.175-0.832-0.35-1.66-0.53-2.52-2-11-1.75-22-1.73-33.2-0.0027-2.32-0.00626-4.64-0.0106-6.96-0.00846-5.71-0.00766-11.4-0.00295-17.1 0.00515-6.9-0.00139-13.8-0.00824-20.7-0.0125-12.9-0.0154-25.8-0.0132-38.7 0.00225-13.1 1.77e-4 -26.1-0.00714-39.2-4.59e-4 -0.825-9.19e-4 -1.65-0.00139-2.5-0.00188-3.36-0.00379-6.72-0.00574-10.1-0.0203-35.1-0.0264-70.1-0.0276-105-1.29e-4 -3.77-2.65e-4 -7.54-4.07e-4 -11.3-3.4e-5 -0.936-6.8e-5 -1.87-1.03e-4 -2.84-8.17e-4 -20.8-0.0052-41.5-0.0102-62.3-0.00206-8.55-0.00404-17.1-0.00603-25.6-2.21e-4 -0.944-4.42e-4 -1.89-6.7e-4 -2.86-0.0126-54.1-0.0209-108-0.02-162 3.16e-5 -2.02 6.3e-5 -4.05 9.44e-5 -6.07 1.47e-4 -9.14 3.23e-4 -18.3 5.08e-4 -27.4 8.22e-5 -4.08 1.63e-4 -8.15 2.43e-4 -12.2 4.08e-5 -2.04 8.28e-5 -4.08 1.26e-4 -6.12 0.00136-64.5-0.0133-129-0.0411-194-7e-3 -16.3-0.0139-32.5-0.0205-48.8-6.09e-4 -1.5-6.09e-4 -1.5-0.00123-3.03-0.0124-30.9-0.02-61.7-0.0225-92.6-7.99e-5 -0.969-1.6e-4 -1.94-2.42e-4 -2.94-0.00171-21.3-0.00223-42.5-0.00166-63.8 1.93e-4 -7.61 2.97e-4 -15.2 3.57e-4 -22.8 1.58e-5 -1.89 3.62e-5 -3.79 6.12e-5 -5.68 3.52e-4 -30.1-0.011-60.3-0.0283-90.4-0.0173-30.4-0.0217-60.7-0.00848-91.1 0.00182-4.2 0.00351-8.4 0.00512-12.6 3.2e-4 -0.823 6.4e-4 -1.65 9.7e-4 -2.5 0.0047-13-0.00399-26-0.0183-39-0.0138-12.8-0.0133-25.6 0.00238-38.4 0.00797-6.85 0.00929-13.7-0.00691-20.5-0.0146-6.24-0.0106-12.5 0.00785-18.7 0.00342-2.23 2.58e-4 -4.47-0.0106-6.7-0.157-34.6 8.44-68 31.5-94.6l1.38-1.62c16.6-19.4 38.2-33.2 62.6-40.6 0.761-0.234 1.52-0.468 2.31-0.709 15.6-4.53 30.3-5.48 46.4-5.42zm-21.6 47.3c-0.707 0.0759-1.41 0.152-2.14 0.23-16.7 2.05-31.3 10.1-43.9 20.9-0.808 0.608-1.62 1.22-2.45 1.84-15.4 13-25.3 34.4-27.4 54.2-0.465 6.94-0.327 13.9-0.312 20.9 2.82e-4 1.81 1.23e-4 3.63-4.43e-4 5.44-2.86e-4 4.9 0.00558 9.81 0.0126 14.7 0.00627 5.13 0.00684 10.3 0.00803 15.4 0.0031 9.71 0.0113 19.4 0.0213 29.1 0.0112 11.1 0.0167 22.1 0.0217 33.2 0.0104 22.7 0.028 45.5 0.0503 68.2 1.83 8.17e-4 1.83 8.17e-4 3.69 0.00165 28.9 0.0141 57.8 0.0539 86.8 0.125 3.56 0.00877 7.12 0.0173 10.7 0.0257 0.709 0.00168 1.42 0.00336 2.15 0.00509 11.5 0.0266 22.9 0.0358 34.4 0.0384 11.8 0.00306 23.6 0.0251 35.3 0.0645 6.61 0.0216 13.2 0.0339 19.8 0.0256 6.23-0.00754 12.5 0.0083 18.7 0.0419 2.28 0.00823 4.56 0.00799 6.85-0.00146 3.12-0.0117 6.25 0.00755 9.37 0.0342 0.897-0.0107 1.79-0.0213 2.72-0.0323 7.56 0.12 14.4 2.48 19.8 7.99 0.432 0.741 0.864 1.48 1.31 2.25 0.455 0.744 0.91 1.49 1.38 2.25 2.84 5.85 2.94 12.2 0.871 18.3-2.49 5.8-5.23 9.51-11.1 12-9.48 3.27-19.8 2.43-29.7 2.41-2.33 0.00874-4.65 0.0192-6.98 0.0313-6.29 0.0278-12.6 0.0313-18.9 0.0303-6.59 0.00313-13.2 0.0288-19.8 0.052-11 0.0366-22.1 0.0581-33.1 0.0695-11.4 0.0118-22.7 0.0321-34.1 0.0635-0.702 0.00194-1.4 0.00387-2.13 0.00587-3.52 0.00977-7.04 0.0197-10.6 0.0297-29.2 0.0827-58.4 0.136-87.5 0.172-0.011 34.1-0.0215 68.1-0.0317 102-2e-4 0.667-3.99e-4 1.33-6.05e-4 2.02-0.0214 71.5-0.0398 143-0.0523 214-2.79e-4 1.59-5.58e-4 3.17-8.37e-4 4.76-0.00585 33.3-0.0113 66.6-0.0162 99.9-0.00249 16.7-0.00506 33.5-0.00771 50.2-3.98e-4 2.52-7.95e-4 5.05-0.00119 7.57-0.00612 38.9-0.0139 77.7-0.0267 117-2.74e-4 0.836-5.48e-4 1.67-8.3e-4 2.53-0.00442 13.5-0.00899 26.9-0.0136 40.4-0.0132 38.8-0.0254 77.6-0.0305 116-1.07e-4 0.798-2.14e-4 1.6-3.24e-4 2.42-0.00233 17.5-0.00412 35-0.0054 52.6-5.23e-4 7.05-0.00112 14.1-0.00175 21.2-6.69e-5 0.772-1.34e-4 1.54-2.03e-4 2.34-0.00219 24.9-0.0107 49.7-0.0226 74.6-0.0119 25-0.0176 50.1-0.0147 75.1 4.06e-4 3.46 7.41e-4 6.92 0.00103 10.4 5.98e-5 0.679 1.2e-4 1.36 1.81e-4 2.06 8.07e-4 11.4-0.00632 22.8-0.0156 34.2-0.00749 9.91-0.00774 19.8-0.00207 29.7 0.00302 5.65 0.00287 11.3-0.0061 16.9-0.00811 5.14-0.00696 10.3 0.00149 15.4 0.00142 1.85-4.82e-4 3.69-0.00619 5.54-0.083 28.7 6.89 51.3 26.9 72.5 16.3 15.9 38.1 24.1 60.7 24.1 0.928 0.00178 1.86 0.00355 2.81 0.00538 3.12 0.00474 6.24 0.00237 9.36 4.11e-5 2.26 0.00195 4.53 0.00434 6.79 0.00713 6.25 0.00641 12.5 0.00656 18.8 0.00572 6.09 1.52e-4 12.2 0.00498 18.3 0.00966 12.6 0.00951 25.2 0.0142 37.8 0.0163 12.8 0.00213 25.6 0.00639 38.4 0.0132 0.807 4.31e-4 1.61 8.61e-4 2.45 0.0013 3.29 0.00176 6.58 0.00353 9.86 0.00531 39.9 0.0216 79.7 0.0325 120 0.0415 12.9 0.00293 25.9 0.0063 38.8 0.00997 0.912 2.58e-4 1.82 5.17e-4 2.76 7.83e-4 3.69 0.00105 7.38 0.00209 11.1 0.00315 63.1 0.018 126 0.0333 189 0.0408 4.96 5.84e-4 9.91 0.00118 14.9 0.00178 0.983 1.18e-4 1.97 2.36e-4 2.98 3.58e-4 9.96 0.0012 19.9 0.00241 29.9 0.00363 2 2.45e-4 3.99 4.89e-4 5.99 7.32e-4 64.1 0.00779 128 0.0302 192 0.0627 46.1 0.0233 92.2 0.0449 138 0.052 1.42 2.21e-4 1.42 2.21e-4 2.87 4.46e-4 20.8 0.00318 41.6 0.00524 62.4 0.00623 8.37 4.15e-4 16.7 9.7e-4 25.1 0.00156 0.916 6.07e-5 1.83 1.21e-4 2.78 1.84e-4 29.5 0.00202 59 0.0163 88.5 0.0368 29.7 0.0206 59.5 0.0285 89.2 0.0189 4.11-0.00132 8.22-0.0025 12.3-0.00359 0.806-2.2e-4 1.61-4.4e-4 2.44-6.66e-4 12.7-0.00311 25.5 0.0072 38.2 0.0231 12.5 0.0154 25.1 0.0165 37.6 0.00245 6.71-0.00712 13.4-0.0075 20.1 0.00956 6.11 0.0154 12.2 0.0123 18.3-0.00541 2.19-0.00314 4.38 3.72e-4 6.57 0.0115 15.5 0.0736 31.1-0.637 45-8.32 0.984-0.519 0.984-0.519 1.99-1.05 22.5-12.1 38.1-30.7 45.6-55.1 3.6-12.6 3.14-25.7 3.13-38.7 0.00104-1.91 0.00253-3.81 0.0044-5.72 0.00389-5.24 0.00156-10.5-0.00178-15.7-0.00254-5.7 7.23e-4 -11.4 0.00324-17.1 0.00361-9.99 0.0035-20 9.53e-4 -30-0.00273-10.7-0.00333-21.4-0.00126-32.1 1.94e-4 -1.02 1.94e-4 -1.02 3.91e-4 -2.05 5.33e-4 -2.76 0.00108-5.52 0.00165-8.27 0.00529-25.7 0.00565-51.4 0.00285-77-1.24e-4 -1.14-1.24e-4 -1.14-2.51e-4 -2.3-8.29e-5 -0.762-1.66e-4 -1.52-2.51e-4 -2.31-0.00252-23.2-0.00317-46.4-0.00198-69.6 7.75e-5 -1.55 1.55e-4 -3.11 2.31e-4 -4.66 3.1e-4 -6.24 6.29e-4 -12.5 9.6e-4 -18.7 9.17e-4 -17.4 0.00149-34.9 0.00179-52.3 2.05e-5 -1.19 2.05e-5 -1.19 4.14e-5 -2.41 4.09e-4 -25.3-7.18e-4 -50.6-0.00289-76-7.02e-5 -0.821-1.4e-4 -1.64-2.13e-4 -2.49-0.00114-13.3-0.00236-26.7-0.00359-40-0.00486-52.9-0.00463-106 2.31e-4 -159 0.00122-13.3 0.00243-26.7 0.00357-40 7.04e-5 -0.821 1.41e-4 -1.64 2.13e-4 -2.49 0.00216-25.3 0.00307-50.6 0.00264-75.9-1.36e-5 -0.794-2.72e-5 -1.59-4.12e-5 -2.41-3.12e-4 -17.4-9.46e-4 -34.8-0.00187-52.3-3.29e-4 -6.23-6.42e-4 -12.5-9.51e-4 -18.7-7.74e-5 -1.55-1.56e-4 -3.1-2.36e-4 -4.65-0.00119-23.2-1.75e-4 -46.4 0.00235-69.6 8.28e-5 -0.761 1.66e-4 -1.52 2.51e-4 -2.31 1.24e-4 -1.14 1.24e-4 -1.14 2.51e-4 -2.3 0.00275-25.6 0.00175-51.2-0.00353-76.8-5.52e-4 -2.74-0.00109-5.49-0.00161-8.23-1.95e-4 -1.01-1.95e-4 -1.01-3.95e-4 -2.04-0.0021-11.3-2.33e-4 -22.7 0.00265-34 0.00223-9.85 8.68e-4 -19.7-0.0035-29.5-0.00239-5.62-0.00316-11.2 4.06e-4 -16.9 0.0032-5.1 0.0019-10.2-0.00318-15.3-0.00102-1.85-3.18e-4 -3.69 0.00221-5.54 0.00316-2.49 2.78e-4 -4.97-0.00424-7.46 0.00239-0.725 0.00478-1.45 0.00724-2.2 0.0379-3.7 0.0379-3.7-1.13-7.15-1.48-3.66e-4 -1.48-3.66e-4 -3-7.4e-4 -33.9-0.00839-67.7-0.0177-102-0.0276-0.682-2e-4 -1.36-3.99e-4 -2.07-6.05e-4 -73.1-0.0214-146-0.0486-219-0.0877-1.62-8.66e-4 -3.25-0.00173-4.87-0.0026-34.1-0.0182-68.2-0.0372-102-0.0572-17.1-0.01-34.2-0.0199-51.4-0.0296-2.58-0.00147-5.16-0.00294-7.75-0.00441-39.8-0.0226-79.5-0.0419-119-0.0513-0.855-2.03e-4 -1.71-4.06e-4 -2.59-6.15e-4 -13.8-0.00325-27.6-0.00622-41.4-0.00915-39.7-0.00844-79.4-0.019-119-0.0434-0.816-5.02e-4 -1.63-1e-3 -2.47-0.00152-17.9-0.0111-35.8-0.0232-53.8-0.0363-7.21-0.00528-14.4-0.0104-21.6-0.0155-0.789-5.58e-4 -1.58-0.00112-2.39-0.00169-25.4-0.0179-50.9-0.0232-76.3-0.0218-25.6 0.00135-51.2-0.0097-76.9-0.038-3.54-0.00391-7.08-0.00768-10.6-0.0114-0.694-7.27e-4 -1.39-0.00145-2.1-0.0022-11-0.0112-22-0.00886-33-9.86e-4 -10.8 0.00747-21.6 4.18e-4 -32.4-0.0211-5.78-0.0111-11.6-0.0158-17.3-0.00302-5.26 0.0115-10.5 0.00474-15.8-0.0168-1.89-0.00452-3.79-0.0023-5.68 0.00738-19.9 0.0944-19.9 0.0944-27-6.14-4.44-4.49-6.99-10.1-7.27-16.5 0.54-6.89 3.4-12.7 8.53-17.3 5.11-4.24 10-4.92 16.5-4.88 0.799-0.00325 1.6-0.0065 2.42-0.00985 2.69-0.0085 5.39-0.00271 8.08 0.00295 1.95-0.00319 3.91-0.00725 5.86-0.0121 5.4-0.0109 10.8-0.00923 16.2-0.00565 5.86 0.0017 11.7-0.00814 17.6-0.0166 10.3-0.0132 20.6-0.0189 30.9-0.0198 11-9.36e-4 22.1-0.00622 33.1-0.0168 0.697-6.67e-4 1.39-0.00133 2.11-0.00202 3.55-0.00342 7.1-0.00692 10.7-0.0104 25.7-0.0253 51.5-0.041 77.2-0.0516 25.5-0.0105 51-0.0251 76.4-0.0453 0.791-6.24e-4 1.58-0.00125 2.4-0.00189 7.22-0.0057 14.4-0.0115 21.7-0.0173 18-0.0145 35.9-0.0283 53.9-0.0416 0.818-6.1e-4 1.64-0.00122 2.48-0.00185 39.8-0.0296 79.6-0.0519 119-0.0735 13.8-0.00752 27.6-0.0151 41.4-0.0228 0.857-4.77e-4 1.71-9.54e-4 2.6-0.00144 39.8-0.0222 79.6-0.0496 119-0.0784 2.58-0.00187 5.17-0.00373 7.75-0.0056 17.1-0.0124 34.3-0.0248 51.4-0.0373 34.1-0.0249 68.2-0.0493 102-0.0733 1.62-0.00114 3.25-0.00229 4.87-0.00343 73.1-0.0515 146-0.0969 219-0.14 1.03-6e-4 1.03-6e-4 2.07-0.00121 34.2-0.02 68.5-0.0396 103-0.0588 0.128-11.4 0.256-22.8 0.382-34.2 0.0588-5.29 0.118-10.6 0.178-15.9 0.317-28.1 0.631-56.3 0.625-84.4-1.08e-4 -4.45 0.0143-8.89 0.0308-13.3 0.0111-3.61 0.0131-7.22 0.0126-10.8 0.00115-1.65 0.00537-3.29 0.0133-4.94 0.0375-8.44-0.237-16.7-1.15-25.1-0.0802-0.738-0.16-1.48-0.243-2.24-1.92-16-9.89-30.6-19.8-43-0.775-0.982-1.55-1.96-2.35-2.98-14.8-17.6-38-25.8-60.2-27.8-8.3-0.605-16.6-0.453-25-0.434-2.25-0.00209-4.49-0.00505-6.74-0.00881-6.15-0.00776-12.3-0.00314-18.5 0.00356-6.01 0.00456-12-3.56e-4 -18-0.00495-12.4-0.00918-24.9-0.00891-37.3-0.00344-12.6 0.00551-25.2 0.00666-37.8 0.00253-0.796-2.58e-4 -1.59-5.17e-4 -2.41-7.83e-4 -3.24-0.00107-6.49-0.00216-9.73-0.0033-30.2-0.0106-60.4-0.0113-90.6-0.00571-0.894 1.66e-4 -1.79 3.31e-4 -2.71 5.02e-4 -1.34 2.49e-4 -1.34 2.49e-4 -2.71 5.03e-4 -27.3 0.00505-54.6 0.00635-81.9 0.00395-1.83-1.55e-4 -3.66-3.09e-4 -5.48-4.63e-4 -7.35-6.21e-4 -14.7-0.00126-22-0.00192-20.5-0.00183-41.1-0.00298-61.6-0.00357-0.935-2.73e-5 -1.87-5.46e-5 -2.83-8.27e-5 -29.8-8.18e-4 -59.6 0.00143-89.4 0.00578-0.966 1.4e-4 -1.93 2.81e-4 -2.93 4.26e-4 -15.7 0.00229-31.4 0.00473-47.1 0.00718-62.2 0.00971-124 0.00926-187-4.61e-4 -15.7-0.00244-31.4-0.00486-47-0.00714-0.965-1.41e-4 -1.93-2.82e-4 -2.93-4.27e-4 -29.8-0.00431-59.5-0.00614-89.3-0.00527-1.4 4.08e-5 -1.4 4.08e-5 -2.83 8.23e-5 -20.5 6.25e-4 -41 0.00189-61.5 0.00374-7.34 6.58e-4 -14.7 0.00128-22 0.0019-1.83 1.55e-4 -3.65 3.12e-4 -5.48 4.72e-4 -27.3 0.00239-54.6 3.56e-4 -81.8-0.0047-0.894-1.66e-4 -1.79-3.31e-4 -2.71-5.02e-4 -1.34-2.48e-4 -1.34-2.48e-4 -2.7-5.01e-4 -30.1-0.00552-60.2-0.00348-90.3 0.00706-3.23 0.0011-6.47 0.00218-9.7 0.00323-0.794 2.6e-4 -1.59 5.21e-4 -2.41 7.89e-4 -12.6 0.00394-25.1 0.0012-37.7-0.00433-12.4-0.0053-24.7-0.00342-37.1 0.00603-6.61 0.00486-13.2 0.00638-19.8-8.12e-4 -6.01-0.00648-12-0.00369-18 0.00636-2.16 0.00201-4.31 7.02e-4 -6.47-0.00441-9.83-0.0216-19.6 0.0824-29.4 1.14z" fill="#000002"/>
<path transform="translate(1071,674)" d="m0 0c0.554 0.503 1.11 1.01 1.68 1.52 12.6 11.5 12.6 11.5 17.5 17.3 1.94 2.27 3.97 4.44 6.02 6.6 6.74 7.17 12.9 14.7 18.8 22.5 0.686 0.909 0.686 0.909 1.39 1.84 42.6 56.7 70.1 123 78.6 193 0.0922 0.751 0.184 1.5 0.279 2.28 1.81 15.3 2.08 30.4 2.03 45.8-0.00273 1.82-0.00273 1.82-0.00552 3.68-0.0446 17.6-0.507 34.8-3.31 52.3-0.172 1.15-0.343 2.31-0.52 3.5-11.6 77.6-46.4 151-99.9 209-2.84 3.09-5.57 6.26-8.25 9.49-1.34 1.33-1.34 1.33-3.34 1.33-0.33 0.99-0.66 1.98-1 3h-2c-0.33 0.99-0.66 1.98-1 3-1.39 1.4-1.39 1.4-3.25 2.94-3.17 2.68-6.23 5.43-9.25 8.28-7.16 6.74-14.7 12.9-22.5 18.8-0.714 0.544-1.43 1.09-2.16 1.65-15.8 12-32.3 22.7-49.7 32.2-1.49 0.808-2.98 1.62-4.46 2.44-32.3 17.7-66.8 29.7-103 37.7-0.883 0.203-1.77 0.406-2.68 0.616-35.9 8.11-73.7 9.63-110 7.38-0.901-0.0553-1.8-0.111-2.73-0.167-64.9-4.35-129-27.1-183-61.8l-3.23-2.05c-19.9-12.9-39.4-28-55.9-45.1-1.61-1.61-3.23-3.04-5.01-4.45-2.97-2.52-5.33-5.2-7.84-8.16-2.32-2.6-4.78-4.99-7.29-7.41-5.76-5.63-10.6-11.8-15.5-18.2-1.81-2.33-3.73-4.57-5.65-6.82-63.7-77.5-90-184-81-282 8.7-85.9 45.4-166 103-229 1.49-1.65 2.98-3.3 4.46-4.96 10.4-11.6 10.4-11.6 13.7-14.4h2v-2c1.26-1.3 1.26-1.3 3.12-2.88 0.736-0.624 1.47-1.25 2.23-1.89 0.873-0.737 1.75-1.47 2.64-2.23 1.02-0.889 2.04-1.78 3.05-2.67 62.5-54.7 140-87.1 222-96.3 0.746-0.0906 1.49-0.181 2.26-0.275 93.5-11.1 193 17.6 309 105zm-382-43c-0.865 0.296-1.73 0.593-2.62 0.898-40 13.8-76.7 34.3-109 61.1-0.552 0.448-1.1 0.896-1.67 1.36-9.15 7.47-17.5 15.7-25.9 24-0.523 0.522-1.05 1.04-1.59 1.58-10.2 8.6-10.2 8.6-15.9 19h-2c-3.59 4.12-6.75 8.61-10 13-0.774 1.04-0.774 1.04-1.56 2.09-8.15 10.9-15.6 22.1-22.4 33.9-0.424 0.727-0.848 1.45-1.28 2.2-28.4 49-45.6 106-46.7 163-0.0205 0.779-0.0409 1.56-0.062 2.36-0.714 30.5 2.8 60.8 9.06 90.6 3.98 1.33 5.45 0.273 9.31-1.25 17.5-6.57 36.2-8.13 54.7-8.75 1.05-0.035 1.05-0.035 2.12-0.0708 29.3-0.823 54.9 5.11 81.1 18 23.8 11.7 47.3 18 73.9 13.9 0.671-0.101 1.34-0.202 2.03-0.305 12.3-2.17 23.8-7.16 35.1-12.5 40.1-18.9 82.9-26.2 126-11 8.9 3.42 17.6 7.41 26.2 11.4 29.6 13.7 59.5 18.3 90.8 7.17 9.54-3.69 18.8-8.06 28-12.5 34.9-17 77-18.6 114-7.04 10.7 3.72 20.8 8.69 30.7 14.2 3.93 2.22 3.93 2.22 8.34 2.79 7.42-31.7 12.4-62.4 12.3-95.1-0.00216-1.02-0.00431-2.05-0.00653-3.1-0.0553-16.4-0.659-32.5-3.31-48.8-0.199-1.22-0.397-2.45-0.602-3.71-9.55-56.9-31.8-113-68.4-158-0.684-0.875-1.37-1.75-2.07-2.65-3.99-5.09-8.18-9.96-12.6-14.7-1.31-1.44-2.61-2.89-3.87-4.37-4.74-5.52-9.78-10.7-14.9-15.8-1.21-1.22-1.21-1.22-2.45-2.46-14.4-14.3-30.4-26.6-47.1-38-0.863-0.589-0.863-0.589-1.74-1.19-55.1-37.3-121-57.1-187-58.8-1.12-0.0329-1.12-0.0329-2.26-0.0664-39.1-1.02-78.8 5.28-116 18.1zm-216 460c0 3.6 0.19 4.96 1.51 8.11 0.339 0.806 0.678 1.61 1.03 2.44 0.379 0.871 0.758 1.74 1.15 2.64 0.396 0.915 0.793 1.83 1.2 2.77 7.67 17.4 16.6 34.2 27.1 50 0.435 0.658 0.87 1.32 1.32 1.99 9.73 14.7 20.6 28.1 32.2 41.3 1.34 1.53 2.67 3.07 4 4.62l2.16 2.49 1.82 2.12c1.38 1.67 1.38 1.67 3.49 1.44 0.33 0.99 0.66 1.98 1 3 1.62 1.65 1.62 1.65 3.62 3.25 2.69 2.28 5.24 4.58 7.69 7.12 3.63 3.68 7.55 6.9 11.6 10.1 2.12 1.7 4.22 3.42 6.3 5.17 15.4 12.8 32.3 24 50 33.4 1.75 0.938 3.48 1.91 5.21 2.89 17.9 10 37.1 17.9 56.6 24.1 1.38 0.44 1.38 0.44 2.79 0.89 88.6 27.9 185 19 267-23.7 14.2-7.56 28-15.7 41-25.1 0.663-0.479 1.33-0.959 2.01-1.45 9.13-6.62 17.9-13.6 26.3-21.1 1.17-1.03 2.34-2.04 3.52-3.05 5.48-4.71 10.6-9.73 15.7-14.9 0.811-0.808 1.62-1.62 2.46-2.45 4.87-4.88 9.52-9.87 14-15.1 0.542-0.63 1.08-1.26 1.64-1.91 18.7-21.9 34.5-46.4 47.4-72.1 0.321-0.635 0.643-1.27 0.974-1.92 3.51-6.31 3.51-6.31 5.11-13.2-1.8-3.12-4.93-4.18-8.09-5.63-1.07-0.51-1.07-0.51-2.16-1.03-1.51-0.718-3.02-1.43-4.54-2.14-2.24-1.05-4.47-2.14-6.69-3.24-26.3-12.9-56.1-16.2-84.3-6.72-7.92 2.87-15.4 6.68-22.9 10.4-14.8 7.24-30.2 12.4-46.4 15.5-1.17 0.226-2.34 0.451-3.55 0.684-18 2.91-36.6 2.13-54.5-1.68-1.26-0.267-2.51-0.534-3.8-0.809-14.2-3.43-27.4-9.49-40.7-15.4-31.8-14.2-62-18.4-95-5.79-4.72 1.95-9.29 4.22-13.9 6.47-41.2 20.2-84 24-128 9.56-8.68-2.99-16.9-6.86-25-11-31-15.7-78.5-20.9-110-2.97z" fill="#000002"/>
<path transform="translate(797 461)" d="m0 0c2.05 0.00565 4.11 0.00846 6.16 0.0111 19.9 0.0369 39.6 0.446 59.4 3.31 1.9 0.265 1.9 0.265 3.83 0.536 58 8.2 112 25.4 164 51.5 0.83 0.41 1.66 0.821 2.52 1.24 82 40.8 82 40.8 93 67.4 1.15 7.73 0.54 13.7-3.75 20.3-4.3 5.48-8.83 8.44-15.7 9.56-12.7 0.79-20.9-6.27-30.1-14.1-5.4-4.44-11.2-8.4-16.9-12.4-0.561-0.393-1.12-0.785-1.7-1.19-60.2-42-131-67.2-204-76.5-0.931-0.12-1.86-0.239-2.82-0.362-16.1-1.96-32.2-2.17-48.4-2.19-3.82-0.00962-7.64-0.0407-11.5-0.0723-61.5-0.262-125 13.7-180 40.1-2.86 1.35-5.72 2.67-8.59 3.99-31 14.4-60.3 32.8-87 54.3-1.03 0.819-2.06 1.64-3.12 2.48-5.34 4.3-10.5 8.78-15.5 13.4-2.11 1.91-4.24 3.77-6.4 5.62-4.53 3.95-8.72 8.22-12.9 12.5-2.65 2.67-5.32 5.32-8.02 7.95-5.97 5.85-11.6 11.7-16.8 18.3-1.81 2.25-3.66 4.41-5.57 6.57-3.39 3.85-6.58 7.83-9.68 11.9-0.552 0.726-1.1 1.45-1.67 2.2-55.6 73.6-88.6 162-93.5 254-0.043 0.813-0.0859 1.63-0.13 2.46-0.788 15.3-0.769 30.4 0.0677 45.7 0.0426 0.779 0.0851 1.56 0.129 2.36 5.25 93.2 39.5 186 98.6 259 4.93 6.15 8.97 12.8 8.53 21-1.64 7.54-4.66 13.5-11 18-6.04 3.44-12.3 3.85-19 2.64-16.9-4.92-29.8-30.9-39-44.6-0.395-0.587-0.791-1.17-1.2-1.78-8.96-13.3-16.9-27.2-24.8-41.2-0.424-0.751-0.849-1.5-1.29-2.27-42.5-75.6-62-168-40.7-371 18.4-65.4 49.1-127 92-180 0.745-0.927 1.49-1.85 2.26-2.81 8.17-10.1 16.4-20.1 25.7-29.2 2.61-2.6 4.99-5.37 7.39-8.16 2.43-2.77 4.93-5.35 7.63-7.86h2c0.33-0.99 0.66-1.98 1-3 1.39-1.4 1.39-1.4 3.25-2.94 3.21-2.72 6.33-5.51 9.4-8.38 6.24-5.84 12.6-11.4 19.3-16.7l1.92-1.54c11.3-9.05 23-17.4 35.1-25.5 0.694-0.465 1.39-0.929 2.1-1.41 81.2-54.3 178-83.2 275-82.9z" fill="#000002"/>
<path transform="translate(1191 649)" d="m0 0c10 6.74 16.2 17.1 22.9 26.9 0.506 0.741 1.01 1.48 1.53 2.25 14.3 21 27.3 42.7 38.4 65.6 1.11 2.27 2.25 4.53 3.38 6.8 23.5 47.3 37.4 100 43.7 152 0.224 1.72 0.224 1.72 0.453 3.47 5.42 42.3 4.61 86.4-1.45 129-0.0967 0.675-0.193 1.35-0.293 2.04-10.7 73.9-37.5 146-79.7 208-0.576 0.847-1.15 1.69-1.75 2.57-7.37 10.8-15 21.3-23.3 31.4-0.78 0.973-1.56 1.95-2.36 2.95-4.35 5.38-8.85 10.6-13.5 15.7-1.95 2.15-3.86 4.33-5.75 6.53-2.74 3.15-5.63 6.09-8.61 9.02-2.52 2.56-4.85 5.27-7.19 8-1.48 1.68-2.91 3.31-4.58 4.8h-2c-0.33 0.99-0.66 1.98-1 3-1.43 1.44-1.43 1.44-3.31 3-3.06 2.59-6.05 5.23-8.98 7.96-5.09 4.73-10.3 9.26-15.7 13.6-2.22 1.79-4.41 3.59-6.59 5.42-9.31 7.76-19 14.7-29.1 21.4-2.25 1.5-4.49 3.03-6.72 4.57-76.2 52.1-172 83.9-264 84.2-1.25 0.00701-2.5 0.014-3.78 0.0213-4 0.0174-8 0.0244-12 0.0256-0.682 4.42e-4 -1.36 8.84e-4 -2.07 0.00134-20.7 0.00702-41-0.349-61.6-3.25-1.28-0.172-2.57-0.343-3.89-0.52-77.7-10.4-153-38.6-217-83.5l-2.12-1.47c-4.37-3.04-8.72-6.11-13-9.22-1.56-1.11-3.12-2.21-4.69-3.31-6.1-4.43-10.7-9.75-13.1-17-0.883-8.96 0.577-14.8 6.25-21.8 6.28-5.14 11.5-7.02 19.7-6.68 8.19 1.18 14.1 6.13 20.4 11.2 74.2 58.4 173 88.4 323 86.3 1.89-0.201 1.89-0.201 3.83-0.406 47.2-5.24 93-19.1 136-38.6 0.778-0.347 1.56-0.694 2.36-1.05 29.4-13.2 57.2-30.3 82.6-49.9 0.646-0.495 1.29-0.99 1.96-1.5 17.2-13.2 33.2-27.5 48.6-42.8 1.67-1.67 3.35-3.33 5.03-4.99 6.6-6.57 12.7-13.4 18.4-20.7 1.19-1.44 2.39-2.87 3.59-4.3 7.22-8.64 14-17.4 20.4-26.7 0.576-0.799 1.15-1.6 1.75-2.42 9.68-13.5 18.2-27.7 26-42.3 1.21-2.25 2.44-4.49 3.67-6.72 20.8-38.3 35.4-80.7 43.5-124 0.179-0.921 0.357-1.84 0.542-2.79 5.25-27.4 7.65-54.9 7.64-82.8 0.00217-3.29 0.0203-6.57 0.0393-9.86 0.04-15-0.749-29.7-2.22-44.6-0.071-0.719-0.142-1.44-0.215-2.18-3.96-38.9-13.9-78.6-28.8-115-0.615-1.51-0.615-1.51-1.24-3.06-11.4-28-24.9-54.9-41.8-79.9-0.632-0.94-0.632-0.94-1.28-1.9-4.14-6.15-8.33-12.3-12.8-18.2-0.496-0.665-0.992-1.33-1.5-2.02-0.941-1.25-1.89-2.5-2.84-3.75-4.36-5.79-7.37-11.7-7.62-19.1 1.14-7.41 4.08-13.3 10-18 8.1-4.5 15.5-4.89 24.1-1.94z" fill="#000002"/>
<path transform="translate(187 92.7)" d="m0 0c1.44-0.00374 2.87-0.00834 4.31-0.0137 3.94-0.0122 7.88-0.012 11.8-0.00961 4.25 4.09e-4 8.5-0.0106 12.8-0.0201 8.33-0.0166 16.7-0.0221 25-0.0232 6.77-9.51e-4 13.5-0.00506 20.3-0.0114 19.2-0.0176 38.4-0.0268 57.6-0.0253 1.04 7.99e-5 2.07 1.6e-4 3.14 2.42e-4 1.55 1.23e-4 1.55 1.23e-4 3.14 2.48e-4 16.8 8.13e-4 33.6-0.0183 50.4-0.0465 17.2-0.0288 34.5-0.0425 51.7-0.0408 9.68 6.63e-4 19.4-0.0048 29-0.0264 8.24-0.0182 16.5-0.0225 24.7-0.00898 4.2 0.00652 8.4 0.0067 12.6-0.0107 3.85-0.0158 7.71-0.0128 11.6 0.00457 2.04 0.00449 4.08-0.0105 6.12-0.0265 17.4 0.129 31.7 6.58 44 18.7 13.6 14.2 17 30.4 17.1 49.5 0.00645 1.4 0.0132 2.81 0.0202 4.21 0.0119 2.93 0.0157 5.87 0.0145 8.8-1.62e-4 2.98 0.0137 5.95 0.041 8.92 0.215 23.7 0.259 44.9-17.1 63.1-0.752 0.753-1.5 1.51-2.28 2.28-0.638 0.65-1.28 1.3-1.93 1.97-14.6 13.9-33.7 15.2-52.7 15.2-1.36 0.00187-2.73 0.00417-4.09 0.00687-3.73 0.00608-7.45 0.00599-11.2 0.00481-4.03-2.05e-4 -8.06 0.00532-12.1 0.0101-7.88 0.00829-15.8 0.0111-23.6 0.0116-6.41 4.76e-4 -12.8 0.00253-19.2 0.0057-18.2 0.0088-36.4 0.0134-54.6 0.0127-1.47-5.99e-5 -1.47-5.99e-5 -2.97-1.21e-4 -1.47-6.13e-5 -1.47-6.13e-5 -2.97-1.24e-4 -15.9-4.06e-4 -31.8 0.00916-47.7 0.0233-16.3 0.0144-32.7 0.0213-49 0.0204-9.17-3.31e-4 -18.3 0.00239-27.5 0.0132-7.8 0.00912-15.6 0.0113-23.4 0.00449-3.98-0.00326-7.95-0.00336-11.9 0.00535-3.65 0.00791-7.3 0.00639-10.9-0.00228-1.93-0.00224-3.86 0.00526-5.79 0.0132-19.1-0.0751-36.3-4.59-50.5-18-17.7-18.8-18.1-41-18.1-65.4 0.00316-3.76-0.0204-7.51-0.0457-11.3-0.0642-23.6 1.83-43.9 19.4-61.6 7.26-6.45 14.8-10.9 24-14 1.39-0.517 1.39-0.517 2.81-1.04 5.91-1.66 12.1-1.24 18.2-1.22zm-15.9 52.6c-2.73 6.38-2.3 13.3-2.33 20.1-0.0057 1.1-0.0114 2.21-0.0173 3.35-0.00943 2.33-0.016 4.66-0.0198 6.99-0.00971 3.55-0.0408 7.11-0.0723 10.7-0.00653 2.27-0.0118 4.54-0.0156 6.81-0.0123 1.06-0.0247 2.11-0.0374 3.2 0.0201 6.69 0.383 13.1 4.94 18.4 0.552 0.362 1.1 0.724 1.67 1.1 0.541 0.38 1.08 0.761 1.64 1.15 6.79 2.93 15 2.05 22.2 2.04 1.34 0.00115 2.67 0.00274 4.01 0.00473 3.66 0.00417 7.33 0.00211 11-9.86e-4 3.96-0.00226 7.91 0.00123 11.9 0.00398 7.75 0.00445 15.5 0.00349 23.2 5.87e-4 6.3-0.00226 12.6-0.00256 18.9-0.00148 0.896 1.53e-4 1.79 3.06e-4 2.72 4.64e-4 1.82 3.2e-4 3.64 6.44e-4 5.46 9.73e-4 17.1 0.00285 34.1-4.27e-4 51.2-0.0058 14.6-0.00447 29.3-0.00369 43.9 9.19e-4 17 0.00535 34 0.00746 51 0.00439 1.81-3.19e-4 3.63-6.33e-4 5.44-9.43e-4 0.893-1.54e-4 1.79-3.09e-4 2.7-4.68e-4 6.29-8.63e-4 12.6 5.94e-4 18.9 0.00295 7.66 0.00281 15.3 0.00204 23-0.00328 3.91-0.00263 7.82-0.00366 11.7-3.51e-4 3.58 0.00298 7.16 0.00134 10.7-0.00398 1.91-0.00164 3.81 0.00162 5.72 0.00506 10.8 0.485 10.8 0.485 20.2-3.82 0.563-0.478 1.13-0.956 1.71-1.45 4.65-5.85 3.79-13.4 3.78-20.5 0.00429-1.22 0.00857-2.44 0.013-3.7 0.00573-2.58 0.00625-5.15 0.00191-7.73-0.00316-3.94 0.0203-7.87 0.0457-11.8 0.00227-2.51 0.00298-5.01 0.00195-7.52 0.0138-1.76 0.0138-1.76 0.0279-3.56-0.0204-7.96-0.0204-7.96-3.39-15.1-4.33-3.9-6.72-5.12-12.5-5.13-1.76-0.00669-1.76-0.00669-3.55-0.0135-1.3 1.84e-4 -2.59 3.69e-4 -3.93 5.59e-4 -1.38-0.0033-2.77-0.00702-4.15-0.0111-3.81-0.01-7.63-0.0137-11.4-0.0164-4.11-0.0039-8.21-0.0135-12.3-0.0222-9.93-0.0198-19.9-0.0298-29.8-0.0387-4.67-0.00438-9.34-0.00975-14-0.015-15.5-0.017-31.1-0.0315-46.6-0.0387-4.03-0.00191-8.06-0.00383-12.1-0.00579-1-4.84e-4 -2-9.67e-4 -3.04-0.00147-16.2-0.0083-32.5-0.0336-48.7-0.0661-16.7-0.0331-33.3-0.0511-50-0.0543-9.36-0.00217-18.7-0.0109-28.1-0.0365-7.97-0.0217-15.9-0.0298-23.9-0.02-4.07 0.00455-8.13 0.00261-12.2-0.0168-3.72-0.0176-7.45-0.0167-11.2-0.0011-1.98 0.00351-3.97-0.0127-5.95-0.0296-7.78 0.0564-13.5 0.432-18.6 6.9z" fill="#000002"/>
<path transform="translate(1212 108)" d="m0 0c18.4 13 30.4 32.2 35.4 54.1 3.68 24-1.04 47.5-15.1 67.3-14.3 19.3-34.5 31-58.1 34.8-22.4 3.24-45.5-2.62-63.6-16.1-17.8-13.9-31.3-34-34.2-56.8-1.44-19.1 0.53-36.2 9.75-53.3 0.463-0.869 0.926-1.74 1.4-2.63 11.9-21 30.9-34.1 53.8-40.7 25.1-6.28 49.3-0.29 70.7 13.3zm-81.2 45.2c-6.95 8.53-9.79 20-8.75 30.8 2.71 12.9 8.61 21.1 19 29 9.8 6 22.1 6.87 33.2 4.25 4.66-1.82 8.79-4.26 12.8-7.25 1.21-0.893 1.21-0.893 2.44-1.8 7.68-6.59 12-16.4 12.8-26.4 0.387-13.2-3.61-22.7-12.4-32.5-9.01-8.64-19.8-10.8-31.8-10.6-11.3 0.522-19.8 6.53-27.4 14.5z" fill="#000002"/>
<path transform="translate(1424,111)" d="m0 0c1.01 0.743 2.02 1.48 3.06 2.25 0.639 0.578 1.28 1.16 1.94 1.75v2c0.584 0.245 1.17 0.49 1.77 0.742 12 6.75 19.3 25.8 22.8 38.4 5.92 22.3 2.29 45.9-8.84 66-12.8 21.1-31.4 34.4-55.1 40.7-22.9 5.2-45.4 0.824-65.6-10.8-3.19-2.14-6.1-4.49-9-7-0.736-0.593-1.47-1.19-2.23-1.8-16.3-13.6-26.4-34.3-28.8-55.2-1.63-25.9 5.4-47.6 22-67.7 3.08-3.46 6.38-6.43 10-9.28 0.726-0.574 1.45-1.15 2.2-1.74 32-23.8 74.4-21.5 106 1.74zm-85.2 42.2c-7.34 8.99-9.7 20.5-8.75 31.8 1.69 7.84 4.66 14.1 10 20 0.525 0.616 1.05 1.23 1.59 1.87 6.2 6.8 14.2 10.8 23.4 11.4 8.69 0.21 16.4 0.367 24-4.24 0.923-0.548 1.85-1.1 2.8-1.66 9.12-6 15.1-14.1 17.8-24.8 1.77-10.5 0.418-20.9-5.11-30.2-6.69-9.02-15.2-16.3-26.5-18.4-16.2-1.1-27.7 2.19-39.2 14.2z" fill="#000002"/>
</svg>
