<?xml version="1.0" encoding="UTF-8"?>
<svg version="1.1" viewBox="0 0 1600 1600" width="1280" height="1280" xmlns="http://www.w3.org/2000/svg">
<path transform="translate(615 267)" d="m0 0c1.42-0.00135 2.83-0.00313 4.25-0.00531 3.88-0.0047 7.75-0.00324 11.6-7.22e-4 4.22 0.00164 8.44-0.00251 12.7-0.00591 7.39-0.00515 14.8-0.00657 22.2-0.00554 11 0.00153 22-0.00264 33-0.00787 20.8-0.00967 41.6-0.0125 62.4-0.0131 16.1-4.6e-4 32.1-0.00252 48.2-0.0057 4.62-8.98e-4 9.24-0.00179 13.9-0.00267 1.15-2.21e-4 2.3-4.42e-4 3.48-6.7e-4 32.3-0.00615 64.6-0.0101 96.9-0.00966 1.83 2.34e-5 1.83 2.34e-5 3.69 4.72e-5 6.17 8.31e-5 12.3 1.82e-4 18.5 2.85e-4 1.84 2.99e-5 1.84 2.99e-5 3.72 6.04e-5 2.48 4.04e-5 4.96 8.22e-5 7.44 1.25e-4 38.6 6.13e-4 77.2-0.00689 116-0.0206 43.3-0.0154 86.7-0.024 130-0.023 4.62 7.46e-5 9.25 1.23e-4 13.9 1.54e-4 1.71 1.75e-5 1.71 1.75e-5 3.45 3.53e-5 18.3 3.08e-5 36.6-0.00635 54.9-0.015 18.4-0.00848 36.8-0.00946 55.2-0.00289 10.9 0.00369 21.9 0.00187 32.8-0.00794 7.31-6e-3 14.6-0.0047 21.9 0.00247 4.16 0.00388 8.32 0.00467 12.5-0.00346 19.3-0.0352 38 0.268 56.9 4.51 1.46 0.326 1.46 0.326 2.95 0.659 23 5.32 44.3 15.5 63.5 29.1 0.571 0.402 1.14 0.803 1.73 1.22 13.7 9.73 26.2 21.4 36.3 34.8 0.733 0.929 1.47 1.86 2.22 2.82 18.5 23.8 29.3 50.9 35.8 80.2 0.165 0.707 0.33 1.41 0.5 2.14 9.89 43.2-2.77 92.5-25.7 130-2.46 3.81-5.13 7.46-7.83 11.1-0.687 0.984-1.37 1.97-2.08 2.98-13 18-30.9 36-50.9 46h-2c2.37 2.68 4.89 4.64 7.88 6.56 10.3 6.74 19.6 14.5 28.1 23.4 1.22 1.22 1.22 1.22 2.46 2.46 29.6 29.6 44.9 67.7 51.5 109 0.191 1.09 0.382 2.17 0.578 3.29 2.27 19.9-0.111 39.3-4.58 58.7-0.17 0.766-0.341 1.53-0.517 2.32-9.4 41.6-34.8 79-68.4 105-0.685 0.529-1.37 1.06-2.08 1.6-4.45 3.32-8.95 5.85-14 8.21v2c1.62 1.17 3.3 2.26 5 3.31 41.7 27.2 70.5 69.4 80.8 118 0.801 3.89 1.55 7.78 2.25 11.7 0.188 1.05 0.377 2.09 0.571 3.17 3.41 20.3 1.88 40.8-2.57 60.8-0.346 1.58-0.346 1.58-0.699 3.18-3.77 16.6-9.57 31.7-17.3 46.8-0.52 1.03-0.52 1.03-1.05 2.09-3.95 7.76-8.84 14.8-14 21.8-0.57 0.785-1.14 1.57-1.73 2.38-3.52 4.73-7.29 8.94-11.5 13-1.92 1.84-1.92 1.84-4.04 4.65-3.07 3.8-6.94 6.68-10.7 9.71-1.89 1.51-3.75 3.04-5.58 4.62-7.29 6.23-15 11.1-23.4 15.7-1.01 0.572-2.01 1.14-3.05 1.73-11.3 6.01-23.4 10.1-35.3 14.5-5.08 1.89-10.2 3.79-15.2 5.7-8.05 3.03-16.1 6.05-24.2 9.07-1.07 0.399-2.13 0.798-3.23 1.21-3.34 1.25-6.68 2.5-10 3.75-9.56 3.58-19.1 7.17-28.7 10.8-1.19 0.445-2.37 0.89-3.6 1.35-16.1 6.04-32.2 12.1-48.3 18.2-11 4.17-22 8.3-33 12.4-5.38 2.02-10.8 4.03-16.1 6.05-3.22 1.21-6.45 2.42-9.67 3.63-1.33 0.499-2.66 0.998-3.99 1.5l-37.6 14.1c-1.69 0.635-1.69 0.635-3.42 1.28-1.05 0.394-2.1 0.788-3.18 1.19-1.01 0.377-2.01 0.754-3.05 1.14-1.95 0.731-3.9 1.46-5.85 2.19-4.74 1.78-9.47 3.55-14.2 5.33-9.8 3.68-19.6 7.35-29.4 11-27.5 10.3-55 20.6-82.4 31-2.63 0.991-5.26 1.98-7.9 2.97-16.1 6.03-16.1 6.03-32.1 12.4-20.9 8.46-42.6 11.5-65 12.1-0.688 0.0205-1.38 0.0411-2.08 0.0622-15.7 0.462-31.4 0.507-47.1 0.483-4.1-0.00511-8.19-0.0042-12.3-0.00416-8.07-8.34e-4 -16.1-0.00706-24.2-0.0151-9.69-0.00938-19.4-0.0128-29.1-0.0162-23.4-0.00857-46.8-0.0276-70.2-0.0484-11.1-0.0098-22.2-0.0185-33.2-0.0272-38-0.0298-75.9-0.0624-114-0.103-2.38-0.00252-4.75-0.00504-7.13-0.00757-1.18-0.00125-2.36-0.0025-3.57-0.00379-5.97-0.00633-11.9-0.0126-17.9-0.019-1.19-0.00125-2.37-0.00251-3.59-0.0038-38.5-0.0406-76.9-0.0657-115-0.0817-40.7-0.017-81.5-0.0485-122-0.0964-4.47-0.0052-8.95-0.0103-13.4-0.0154-1.1-0.00126-2.2-0.00252-3.34-0.00382-17.7-0.0199-35.4-0.0266-53.1-0.0285-17.8-0.00222-35.6-0.0192-53.3-0.051-10.5-0.0184-21.1-0.026-31.6-0.0175-7.06 0.00458-14.1-0.0055-21.2-0.0271-4.01-0.0118-8.02-0.0178-12-0.00567-23 0.0633-45.6-1.13-67.5-8.54-1.3-0.412-2.61-0.823-3.91-1.23-17.3-5.63-33.3-14.1-48.1-24.8-0.547-0.386-1.09-0.773-1.66-1.17-17.2-12.2-33-28.1-44.3-45.8-0.493-0.767-0.986-1.53-1.49-2.32-6.88-10.8-13-21.7-17.5-33.7l-0.787-2.07c-17.9-48-16-98.3 4.79-145 7.54-16.2 17.7-31.6 29.9-44.7 1.87-2 3.63-4.06 5.38-6.16 9.3-10.6 20.3-18.7 31.8-26.7 2-1.42 3.96-2.88 5.92-4.36l-1.77-1.21c-11.4-7.93-22.2-16.2-32.2-25.8-1.25-1.15-1.25-1.15-2.52-2.32-32.5-30.9-52-78.1-53.9-123-1.1-52.5 18.3-101 54.4-139 10.6-11 22.6-20.6 36-28-2.44-2.76-5.05-4.76-8.12-6.75-18.2-11.9-34-27.8-46.9-45.2-0.416-0.556-0.832-1.11-1.26-1.68-26.8-36.2-39.4-87-32.8-131 1.1-6.36 2.53-12.6 4.09-18.9 0.337-1.4 0.337-1.4 0.681-2.83 11.8-48.4 44.3-89.6 86.5-115 9.87-5.84 20.1-10.3 30.9-14 11.2-3.86 22.2-7.93 33.3-12 1-0.371 2-0.742 3.04-1.12 15.4-5.72 30.9-11.5 46.3-17.4 5.52-2.11 11.1-4.21 16.6-6.31 1.14-0.434 2.29-0.868 3.46-1.32 14.2-5.4 28.5-10.7 42.8-16.1 10.3-3.85 20.6-7.73 30.8-11.6 8.04-3.07 16.1-6.09 24.2-9.11 12.9-4.84 25.9-9.69 38.8-14.6 40-15.2 80.1-30.1 120-45 5.32-1.98 10.6-3.96 15.9-5.94 9.2-3.43 18.4-6.85 27.6-10.2 0.767-0.283 1.53-0.566 2.32-0.857 4.86-1.79 9.71-3.57 14.6-5.35 1.53-0.559 3.06-1.12 4.59-1.68 22.4-8.24 43.9-12.3 67.8-12.2zm-34.1 56.3c-0.726 0.212-1.45 0.423-2.2 0.641-8.48 2.55-16.7 5.75-25 8.98-4.62 1.81-9.25 3.59-13.9 5.37-0.897 0.346-1.79 0.691-2.72 1.05-6.53 2.51-13.1 4.89-19.7 7.14-11.3 3.84-22.4 8.1-33.6 12.4-8.13 3.1-16.3 6.15-24.4 9.21-1.68 0.631-3.37 1.26-5.05 1.89-2.67 1-5.34 2-8.01 3-7.13 2.67-14.3 5.34-21.4 8.02-1.11 0.416-2.22 0.832-3.36 1.26-5.8 2.17-11.6 4.35-17.4 6.53-11.8 4.44-23.6 8.86-35.5 13.3-5.13 1.91-10.3 3.83-15.4 5.75-4.23 1.58-8.47 3.16-12.7 4.74-2.65 0.986-5.29 1.98-7.94 2.97-1.8 0.673-3.6 1.34-5.4 2.01-7 2.62-13.8 5.5-20.6 8.69v1c0.596 5.56e-4 1.19 0.00111 1.81 0.00169 64.9 0.0606 130 0.124 195 0.2 0.97 0.00113 1.94 0.00227 2.94 0.00344 21.1 0.0247 42.2 0.0497 63.2 0.0753 10.3 0.0125 20.7 0.025 31 0.0373 1.03 0.00123 2.06 0.00247 3.12 0.00374 33.3 0.0399 66.7 0.0734 100 0.104 34.3 0.031 68.5 0.0686 103 0.114 4.84 0.00645 9.68 0.0128 14.5 0.0192 0.953 0.00125 1.91 0.0025 2.89 0.00378 15.3 0.0199 30.6 0.0329 46 0.0434 15.4 0.0107 30.8 0.0286 46.2 0.0539 9.15 0.0148 18.3 0.0241 27.4 0.0254 6.12 0.00145 12.2 0.0102 18.4 0.0246 3.48 8e-3 6.96 0.013 10.4 0.00912 45.4-0.0304 86.1 8.16 124 35.3 0.609 0.434 1.22 0.867 1.84 1.31 40.1 28.8 64.5 73.6 72.4 122 4.53 33.4 0.516 66.6-12.1 97.9-0.925 2.38-1.67 4.59-2.2 7.08 4.12-0.692 7.83-1.95 11.7-3.41 0.66-0.246 1.32-0.492 2-0.745 2.19-0.818 4.38-1.64 6.57-2.47 1.57-0.587 3.14-1.17 4.71-1.76 4.16-1.56 8.32-3.12 12.5-4.68 3.22-1.21 6.44-2.41 9.66-3.62 8.26-3.09 16.5-6.19 24.8-9.29 9.51-3.57 19-7.14 28.5-10.7 5.09-1.91 10.2-3.82 15.3-5.73 2.05-0.77 4.1-1.54 6.16-2.31 1.01-0.379 2.02-0.758 3.06-1.15 8.94-3.35 8.94-3.35 11.9-4.45 1.95-0.731 3.9-1.46 5.85-2.19 4.92-1.85 9.84-3.69 14.8-5.54 9.58-3.59 19.2-7.19 28.7-10.8 5.87-2.21 11.7-4.41 17.6-6.61 1.17-0.439 2.34-0.877 3.54-1.33 15-5.62 30-11.2 45-16.8 7.36-2.74 14.7-5.48 22.1-8.23 4.61-1.72 9.21-3.44 13.8-5.14 29.2-10.6 29.2-10.6 54.8-28.1 0.91-0.779 1.82-1.56 2.76-2.36 5.53-4.61 5.53-4.61 9.24-10.6h2c1.41-1.45 1.41-1.45 2.83-3.37 0.55-0.716 1.1-1.43 1.67-2.17 0.58-0.772 1.16-1.54 1.76-2.34 0.887-1.18 0.887-1.18 1.79-2.38 21.6-28.9 29.6-64.4 24.8-100-5.22-33.4-23.7-65.8-51-86-3.31-2.34-6.68-4.56-10.1-6.72-1.43-0.908-2.84-1.86-4.24-2.81-23.9-15.7-53.2-18.4-81-18.4-1.39-0.00135-2.78-0.00314-4.16-0.00531-3.78-0.00468-7.56-0.00325-11.3-7.22e-4 -4.12 0.00165-8.25-0.00252-12.4-0.00591-7.22-0.00514-14.4-0.00657-21.7-0.00554-10.7 0.00153-21.5-0.00265-32.2-0.00787-20.3-0.00966-40.6-0.0125-60.9-0.0131-15.7-4.6e-4 -31.3-0.00252-47-0.0057-4.51-8.98e-4 -9.03-0.00179-13.5-0.00267-1.12-2.21e-4 -2.24-4.42e-4 -3.4-6.7e-4 -31.5-0.00615-63.1-0.0101-94.6-0.00966-1.19 1.56e-5 -2.38 3.12e-5 -3.6 4.72e-5 -6.02 8.31e-5 -12 1.82e-4 -18.1 2.85e-4 -1.79 2.99e-5 -1.79 2.99e-5 -3.63 6.04e-5 -2.42 4.04e-5 -4.84 8.22e-5 -7.26 1.25e-4 -37.7 6.13e-4 -75.3-0.0069-113-0.0206-42.3-0.0154-84.6-0.024-127-0.023-4.51 7.46e-5 -9.03 1.23e-4 -13.5 1.54e-4 -1.11 1.17e-5 -2.22 2.33e-5 -3.37 3.53e-5 -17.9 3.08e-5 -35.7-0.00635-53.6-0.015-18-0.00848-35.9-0.00946-53.9-0.00289-10.7 0.00369-21.3 0.00187-32-0.00794-7.13-0.00601-14.3-0.00469-21.4 0.00247-4.06 0.00387-8.12 0.00468-12.2-0.00346-27.7-0.507-27.7-0.507-54.7 4.39zm-428 160c-0.782 0.215-1.56 0.431-2.37 0.653-20.3 5.79-42.4 16.2-56.9 32.1v2c-0.99 0.33-1.98 0.66-3 1-23.5 22.2-37.1 56.6-38.2 88.4-0.849 38.2 12.1 70.9 37.9 99.1 25.1 26.1 59 39.4 94.8 40.6 9.06 0.174 18.1 0.163 27.2 0.147 4.14-0.00513 8.29 0.00147 12.4 0.00649 7.25 0.00719 14.5 0.00703 21.7 0.00191 10.8-0.00759 21.5-0.00368 32.3 0.00242 19.2 0.0105 38.5 0.00963 57.7 0.00384 16.8-0.00504 33.7-0.00634 50.5-0.00395 1.12 1.53e-4 2.24 3.06e-4 3.39 4.63e-4 4.54 6.23e-4 9.08 0.00126 13.6 0.00192 42.6 0.00611 85.1 5.78e-4 128-0.0102 37.8-0.00949 75.6-0.00864 113 9.22e-4 42.5 0.0107 85 0.015 127 0.00878 4.53-6.41e-4 9.07-0.00127 13.6-0.00189 1.67-2.37e-4 1.67-2.37e-4 3.38-4.79e-4 16.8-0.00227 33.7 3.8e-4 50.5 0.00544 19.1 0.00572 38.3 0.00428 57.4-0.00656 10.7-0.00586 21.4-0.00627 32.1 0.00129 7.16 0.0045 14.3 0.00166 21.5-0.00701 4.07-0.00473 8.15-0.00643 12.2 8.12e-4 29.9 0.516 29.9 0.516 59-4.95 0.866-0.262 1.73-0.524 2.63-0.794 20-6.25 37.2-16.4 52.6-30.5 1.29-1.17 1.29-1.17 2.61-2.36 22.2-21.1 37.7-52.7 39.6-83.5 0.84-41.6-10.3-76.4-39.2-107-22.9-23.2-55.1-37.3-87.6-38.6-1.4-0.059-1.4-0.059-2.83-0.119-13.4-0.5-26.7-0.431-40.1-0.422-4.09 0.00165-8.19-0.00253-12.3-0.00591-7.16-0.00512-14.3-0.00658-21.5-0.00554-10.6 0.00153-21.3-0.00265-31.9-0.00787-20.1-0.00964-40.2-0.0125-60.3-0.0131-15.5-4.6e-4 -31.1-0.00252-46.6-0.0057-4.48-8.98e-4 -8.95-0.00179-13.4-0.00267-1.11-2.21e-4 -2.23-4.42e-4 -3.37-6.7e-4 -31.3-0.00615-62.6-0.0101-93.9-0.00966-1.18 1.56e-5 -2.36 3.12e-5 -3.57 4.72e-5 -5.97 8.31e-5 -11.9 1.82e-4 -17.9 2.85e-4 -1.19 1.99e-5 -2.37 3.99e-5 -3.59 6.04e-5 -2.4 4.04e-5 -4.8 8.22e-5 -7.19 1.25e-4 -37.3 6.13e-4 -74.7-0.0069-112-0.0206-42-0.0154-83.9-0.024-126-0.023-4.48 7.46e-5 -8.95 1.23e-4 -13.4 1.54e-4 -1.1 1.17e-5 -2.2 2.33e-5 -3.34 3.53e-5 -17.7 3.07e-5 -35.4-0.00635-53.2-0.015-17.8-0.00848-35.6-0.00946-53.4-0.00289-10.6 0.00369-21.1 0.00188-31.7-0.00794-7.07-0.00601-14.1-0.00469-21.2 0.00247-4.02 0.00387-8.04 0.00468-12.1-0.00346-28-0.329-28-0.329-55.4 4.51zm1274 162c-0.87 0.322-1.74 0.645-2.64 0.977-2.83 1.06-5.64 2.15-8.46 3.24-1.98 0.748-3.97 1.49-5.95 2.24-4.95 1.86-9.9 3.75-14.8 5.66-3.88 1.49-7.77 2.97-11.7 4.45-4.09 1.56-8.17 3.12-12.3 4.69-10.7 4.11-21.4 8.12-32.1 12.1-19.5 7.22-38.9 14.5-58.4 21.9-1.52 0.573-3.04 1.15-4.55 1.72-0.749 0.282-1.5 0.565-2.27 0.856-6.03 2.27-6.03 2.27-8.94 3.37-1.46 0.55-2.92 1.1-4.38 1.65-12 4.52-24 9.03-36 13.5-0.778 0.292-1.56 0.583-2.36 0.884-5.28 1.98-10.6 3.95-15.8 5.93-40.7 15.2-81.4 30.6-122 46 1.27 3.81 2.53 4.18 5.94 6.19 38.9 24 65.2 65.9 76.2 110 9.67 41.2 4.02 81.2-11.1 120 3.39 1.13 3.92 0.917 7.11-0.301 1.25-0.469 1.25-0.469 2.53-0.947 0.907-0.351 1.81-0.702 2.75-1.06 0.951-0.36 1.9-0.719 2.88-1.09 3.14-1.19 6.28-2.39 9.42-3.6 2.21-0.838 4.41-1.68 6.62-2.51 4.47-1.7 8.95-3.4 13.4-5.1 7.65-2.91 15.3-5.79 23-8.66 3.98-1.49 7.96-2.98 11.9-4.47 6.95-2.61 13.9-5.21 20.9-7.82 5.61-2.1 11.2-4.2 16.8-6.31 3.47-1.3 6.95-2.6 10.4-3.91 14-5.24 28-10.5 41.9-15.8 13.1-4.99 26.3-9.91 39.5-14.8 5.77-2.15 11.5-4.3 17.3-6.45 1.92-0.716 3.84-1.43 5.77-2.15 14.7-5.47 29.4-11 44-16.5 4.61-1.74 9.22-3.45 13.8-5.16 19.7-7.3 38-14.1 53.9-28.4l2.58-2.21c25.4-22.2 41.7-54.3 44.3-88 1.8-38.3-9.34-73.3-35.3-102-17.8-19.1-39.4-31.8-64.6-38.8-1.13-0.325-1.13-0.325-2.28-0.657-6.61-1.64-10.9-0.983-17.1 1.51zm-1246 155c-1.03 0.0335-2.06 0.067-3.12 0.102-32 1.29-62.4 15.5-85.5 37.5v2c-0.99 0.33-1.98 0.66-3 1-25.9 27.2-37.6 62-37.2 99 0.917 35.7 17.7 68.5 43.1 93.1 32.1 28.4 68.4 35.4 110 35.3 4.2-0.00676 8.4 0.00398 12.6 0.0124 7.35 0.0123 14.7 0.0136 22.1 0.00745 10.9-0.00912 21.9-0.00104 32.8 0.0103 19.5 0.0196 39.1 0.022 58.6 0.0168 17.1-0.00456 34.2-0.00395 51.3 0.00184 2.3 7.57e-4 4.59 0.00151 6.89 0.00227 3.46 0.00115 6.92 0.0023 10.4 0.00346 32.1 0.0107 64.3 0.0154 96.4 0.00753 1.21-2.97e-4 2.42-5.94e-4 3.67-9.01e-4 9.84-0.00245 19.7-0.00506 29.5-0.00768 38.4-0.0101 76.7-0.00175 115 0.0215 43.1 0.0261 86.2 0.0389 129 0.0318 4.6-7.16e-4 9.2-0.00139 13.8-0.00204 1.13-1.7e-4 2.27-3.4e-4 3.43-5.15e-4 17.1-0.0023 34.2 0.00566 51.2 0.0188 19.4 0.0149 38.9 0.0157 58.3-0.00207 10.9-0.00954 21.7-0.00817 32.6 0.00923 7.27 0.0105 14.5 0.00633 21.8-0.00948 4.13-0.00859 8.27-0.0112 12.4 0.00427 44.7 0.155 82.1-9.19 115-41 16-16.1 27.1-36.7 33.1-58.5 0.315-1.13 0.315-1.13 0.637-2.27 8.85-32.8 2.96-67.5-12.6-97.3-9.43-16.4-21.5-31.5-37-42.5-0.531-0.385-1.06-0.769-1.61-1.17-12.6-9.05-25.8-15.6-40.6-20.2-0.77-0.239-1.54-0.478-2.33-0.724-12.7-3.66-25.6-4.28-38.7-4.52-0.871-0.0185-1.74-0.0369-2.64-0.056-29.5-0.616-59-0.47-88.5-0.459-9.21 0.00327-18.4 5.64e-4 -27.6-0.0022-18-0.00523-36.1-0.00483-54.1-0.00192-15.8 0.00253-31.5 0.00317-47.3 0.00198-1.05-7.64e-5 -2.1-1.53e-4 -3.19-2.31e-4 -4.27-3.11e-4 -8.54-6.3e-4 -12.8-9.6e-4 -39.9-0.00305-79.8-3e-4 -120 0.0051-35.4 0.00475-70.8 0.00432-106-4.61e-4 -39.9-0.00536-79.8-0.00747-120-0.00439-4.25 3.21e-4 -8.51 6.34e-4 -12.8 9.43e-4 -1.05 7.91e-5 -2.09 1.58e-4 -3.17 2.4e-4 -15.8 0.00113-31.5-1.86e-4 -47.3-0.00272-17.9-0.00287-35.9-0.00213-53.8 0.00328-10 0.00292-20 0.00315-30-6.46e-4 -6.71-0.00226-13.4-8.18e-4 -20.1 0.0035-3.81 0.00236-7.62 0.00324-11.4-4.06e-4 -13.9-0.0122-27.8 0.0494-41.7 0.537zm1243 167c-2.34 0.933-4.68 1.86-7.02 2.79-0.62 0.248-1.24 0.495-1.88 0.75-6.95 2.77-14 5.36-21 7.95-3.75 1.38-7.5 2.77-11.3 4.16-0.737 0.273-1.47 0.546-2.23 0.828-6.99 2.6-14 5.24-20.9 7.9-10.3 3.9-20.5 7.75-30.8 11.6-14.2 5.26-28.4 10.6-42.6 15.9-1.03 0.386-2.06 0.773-3.12 1.17-13.9 5.2-27.7 10.4-41.5 15.7-14.3 5.44-28.7 10.8-43.1 16.1-14.1 5.24-28.2 10.5-42.3 15.8-1.55 0.585-3.1 1.17-4.65 1.76-6.86 2.59-13.7 5.18-20.6 7.77-2.85 1.08-5.7 2.16-8.56 3.23-1.37 0.518-2.74 1.04-4.11 1.56-6.52 2.47-13 4.9-19.6 7.14-1.42 0.483-1.42 0.483-2.88 0.975-1.71 0.573-3.43 1.13-5.15 1.68-1.88 0.624-3.72 1.36-5.54 2.13-0.33 0.99-0.66 1.98-1 3 0.643 0.378 1.29 0.755 1.95 1.14 8.06 4.91 15 10.7 22.1 16.9 0.754 0.642 1.51 1.28 2.29 1.95 37.2 31.8 56.4 78.1 60.5 126 2.21 29.4-3.95 58.1-15.1 85.2-0.768 1.81-0.768 1.81-0.655 3.82 5.36-0.648 10-2.36 15-4.29 0.881-0.335 1.76-0.67 2.67-1.02 2.9-1.1 5.79-2.21 8.68-3.32 2.03-0.775 4.07-1.55 6.1-2.32 3.12-1.19 6.24-2.38 9.36-3.57 9.81-3.74 19.6-7.43 29.5-11.1 1.64-0.616 3.29-1.23 4.93-1.85 3.28-1.23 6.56-2.46 9.83-3.68 7.47-2.8 14.9-5.6 22.4-8.4 4.17-1.56 8.34-3.13 12.5-4.69 1.67-0.625 3.33-1.25 5-1.88l89.7-33.7c0.774-0.29 1.55-0.581 2.35-0.88 1.57-0.59 3.15-1.18 4.72-1.77 4-1.5 8.01-3 12-4.51 8.94-3.35 17.9-6.7 26.8-10 4.41-1.64 8.82-3.29 13.2-4.93 3.09-1.15 6.19-2.31 9.28-3.46 40.5-15 74.9-33.9 94-74.6 14.8-32.7 17.5-69.3 5-103-1.86-4.69-3.97-9.24-6.18-13.8-0.708-1.46-0.708-1.46-1.43-2.95-15.7-30.4-44.1-54.2-76.6-64.7-4.27-1.27-8.57-2.37-12.9-3.33l-2.73-0.859c-5.29-0.227-9.62 1.99-14.5 3.98zm-1272 157c-0.78 0.217-1.56 0.434-2.36 0.657-18.9 5.42-35.3 14.2-50.3 26.8-1.08 0.901-2.18 1.79-3.28 2.66-1.46 1.17-2.87 2.39-4.27 3.63v2c-0.99 0.33-1.98 0.66-3 1-22.4 20.6-35.7 54.8-37.1 84.7-1.08 39.5 11.1 73.5 38.3 102 23.6 24.7 56.8 39 90.9 40 3.6 0.0371 7.2 0.0432 10.8 0.0382 1.4 0.00165 2.79 0.00374 4.19 0.00622 3.83 0.00554 7.66 0.0049 11.5 0.00322 4.17-7.33e-4 8.34 0.0043 12.5 0.00858 8.27 0.00757 16.5 0.00977 24.8 0.0103 9.91 9.15e-4 19.8 0.00759 29.7 0.0143 23.9 0.0161 47.9 0.022 71.8 0.0267 11.3 0.00234 22.7 0.00594 34 0.0097 38.8 0.0128 77.6 0.0236 116 0.027 2.44 2.22e-4 4.87 4.43e-4 7.31 6.65e-4 2.44 2.21e-4 4.88 4.41e-4 7.32 6.61e-4 4.9 4.43e-4 9.79 8.9e-4 14.7 0.00134 1.82 1.64e-4 1.82 1.64e-4 3.68 3.31e-4 39.4 0.00363 78.7 0.0195 118 0.0429 41.6 0.0246 83.3 0.0383 125 0.0395 4.57 1.71e-4 9.14 3.87e-4 13.7 6.34e-4 1.69 8.37e-5 1.69 8.37e-5 3.41 1.69e-4 18.1 0.00115 36.2 0.0122 54.3 0.0267 18.2 0.0144 36.4 0.0176 54.6 0.00956 10.8-0.00445 21.6-6.29e-4 32.4 0.0152 7.23 0.00978 14.5 0.00854 21.7-0.00144 4.11-0.00537 8.22-0.00618 12.3 0.00651 30.4 0.116 30.4 0.116 60-6.07 0.814-0.254 1.63-0.508 2.47-0.77 33.3-10.9 61.2-35.7 77.2-66.6 5.7-11.2 9.26-22.7 12-34.9l0.571-2.54c1.52-7.45 1.81-14.7 1.8-22.3-0.00161-1.27-0.00322-2.53-0.00488-3.84-0.197-15.3-2.74-30-8.37-44.3-0.594-1.58-0.594-1.58-1.2-3.2-10.9-27.5-30.7-49.6-55.8-64.8-0.591-0.362-1.18-0.724-1.79-1.1-24.4-14.7-51.6-18.1-79.6-18-1.39-0.00135-2.77-0.00314-4.16-0.00531-3.78-0.00468-7.56-0.00324-11.3-7.22e-4 -4.12 0.00164-8.25-0.00252-12.4-0.00591-7.22-0.00514-14.4-0.00657-21.7-0.00554-10.7 0.00153-21.5-0.00264-32.2-0.00787-20.3-0.00966-40.6-0.0125-60.9-0.0131-15.7-4.6e-4 -31.3-0.00252-47-0.0057-4.51-8.98e-4 -9.02-0.00179-13.5-0.00267-1.68-3.32e-4 -1.68-3.32e-4 -3.4-6.7e-4 -31.5-0.00615-63.1-0.0101-94.6-0.00966-1.78 2.34e-5 -1.78 2.34e-5 -3.6 4.72e-5 -6.03 8.31e-5 -12.1 1.82e-4 -18.1 2.85e-4 -1.2 1.99e-5 -2.39 3.99e-5 -3.63 6.04e-5 -2.42 4.04e-5 -4.84 8.22e-5 -7.26 1.25e-4 -37.7 6.13e-4 -75.3-0.0069-113-0.0206-42.3-0.0154-84.6-0.024-127-0.023-4.51 7.46e-5 -9.03 1.23e-4 -13.5 1.54e-4 -1.11 1.17e-5 -2.22 2.33e-5 -3.37 3.53e-5 -17.9 3.07e-5 -35.7-0.00635-53.6-0.015-18-0.00848-35.9-0.00946-53.9-0.00289-10.7 0.00369-21.3 0.00188-32-0.00794-7.13-0.00601-14.3-0.00469-21.4 0.00247-4.06 0.00387-8.12 0.00469-12.2-0.00346-28.7-0.414-28.7-0.414-56.8 4.51z" fill="#000002"/>
<path transform="translate(161 587)" d="m0 0c1.86-0.00452 1.86-0.00452 3.76-0.00914 1.38 0.0017 2.77 0.00349 4.15 0.00536 1.47-0.00165 2.94-0.00374 4.42-0.00622 4.07-0.00558 8.14-0.00489 12.2-0.00322 4.42 7.29e-4 8.83-0.00429 13.3-0.00858 8.77-0.00759 17.5-0.00977 26.3-0.0103 10.5-9.13e-4 21-0.00758 31.5-0.0143 25.4-0.0161 50.8-0.022 76.2-0.0267 12-0.00233 24-0.00594 36-0.0097 41.1-0.0128 82.2-0.0236 123-0.027 2.58-2.22e-4 5.16-4.43e-4 7.74-6.65e-4 2.59-2.21e-4 5.17-4.41e-4 7.76-6.61e-4 5.19-4.43e-4 10.4-8.9e-4 15.6-0.00134 1.29-1.09e-4 2.57-2.19e-4 3.9-3.31e-4 41.7-0.00363 83.4-0.0196 125-0.0429 44.1-0.0246 88.2-0.0383 132-0.0395 4.84-1.71e-4 9.67-3.87e-4 14.5-6.34e-4 1.19-5.58e-5 2.38-1.12e-4 3.61-1.69e-4 19.2-0.00115 38.4-0.0122 57.6-0.0267 19.3-0.0143 38.6-0.0176 57.8-0.00956 11.5 0.00446 22.9 5.63e-4 34.4-0.0152 7.65-0.00972 15.3-0.0086 23 0.00144 4.36 0.00541 8.72 0.00604 13.1-0.00651 3.97-0.0113 7.94-0.00883 11.9 0.00467 1.43 0.00243 2.85-1.53e-4 4.28-0.0084 10.3-0.0557 19.2 0.635 27.5 7.38 5 5.33 7.71 12 8.13 19.3-0.461 7.67-3.82 15-9.51 20.1-7.56 6.24-15.4 5.99-24.7 5.95-1.45 0.00423-2.91 0.00978-4.36 0.0165-4.01 0.0147-8.01 0.0108-12 0.00387-4.36-0.00424-8.71 0.00887-13.1 0.0198-7.64 0.0168-15.3 0.0224-22.9 0.0207-11.4-0.0024-22.7 0.0123-34.1 0.0305-19.1 0.0301-38.2 0.0461-57.3 0.054-18.9 0.00783-37.9 0.0214-56.8 0.0428-1.18 0.00133-2.35 0.00265-3.57 0.00402-4.78 0.0054-9.56 0.0108-14.3 0.0163-43.6 0.0501-87.1 0.0857-131 0.112-41.1 0.0252-82.2 0.0595-123 0.104-1.27 0.00138-2.53 0.00277-3.84 0.00419-5.1 0.00557-10.2 0.0112-15.3 0.0167-2.54 0.00278-5.09 0.00556-7.63 0.00834-2.54 0.00277-5.07 0.00555-7.61 0.00833-40.4 0.0442-80.9 0.0803-121 0.115-11.8 0.0102-23.7 0.0209-35.5 0.0326-24.9 0.0246-49.8 0.0469-74.7 0.06-10.3 0.00546-20.6 0.0124-30.9 0.024-8.54 0.00958-17.1 0.0158-25.6 0.0174-4.3 9.19e-4 -8.59 0.00339-12.9 0.0103-3.92 0.0063-7.83 0.00784-11.8 0.00576-1.4 5.56e-5 -2.8 0.00176-4.2 0.00543-7.28 0.0181-14.5-0.111-21.8-0.496-1.28-0.0671-2.56-0.134-3.89-0.203-6.94-0.834-12.2-3.7-17-8.8-5.74-7.61-6.41-14.2-5.56-23.6 2.03-7.29 7.16-13.6 13.7-17.4 4.68-2.21 8.16-2.69 13.3-2.69z" fill="#000002"/>
<path transform="translate(170 1226)" d="m0 0c1.48-0.00387 2.96-0.0095 4.44-0.0167 4.07-0.0147 8.13-0.00461 12.2 0.00961 4.42 0.0111 8.85-0.00111 13.3-0.0103 7.75-0.0129 15.5-0.0109 23.3 7.8e-4 11.5 0.0174 23.1 0.0119 34.6 0.00183 20.6-0.0172 41.2-0.0116 61.8 0.00336 18 0.013 36 0.0182 54.1 0.0157 1.19-1.6e-4 2.39-3.21e-4 3.62-4.86e-4 4.85-6.64e-4 9.7-0.00137 14.5-0.00213 45.5-0.00703 91 0.00847 136 0.0346 40.4 0.0231 80.9 0.0285 121 0.0183 10.4-0.0026 20.7-0.00519 31.1-0.0076 1.91-4.46e-4 1.91-4.46e-4 3.86-9.01e-4 33.8-0.00761 67.5-0.00121 101 0.0096 3.63 0.00115 7.27 0.00229 10.9 0.00343 2.41 7.55e-4 4.82 0.00152 7.23 0.0023 18 0.00566 36 0.00433 54-2.28e-4 20.5-0.0051 40.9 7.23e-4 61.4 0.0209 11.5 0.011 22.9 0.0138 34.4 0.00471 7.65-0.00521 15.3 4.48e-4 23 0.0151 4.36 0.00803 8.73 0.0113 13.1 0.00143 3.97-0.00886 7.94-0.00396 11.9 0.012 1.43 0.00332 2.85 0.00161 4.28-0.00573 10.5-0.0499 19.4 0.914 27.3 8.39 4.9 6.04 7.39 12.6 6.94 20.4-1.17 7.79-4.81 14.3-10.8 19.4-8.04 4.72-15.5 4.68-24.6 4.64-1.48 0.00374-2.97 0.00879-4.45 0.015-4.08 0.0133-8.16 0.00802-12.2-3.33e-4 -4.44-0.0058-8.88 0.00574-13.3 0.0151-7.78 0.0139-15.6 0.0166-23.3 0.012-11.6-0.00683-23.1 0.00342-34.7 0.017-21.9 0.0249-43.7 0.0294-65.6 0.0275-16.9-0.00137-33.8 0.00244-50.6 0.00993-2.42 0.00105-4.85 0.0021-7.27 0.00314-1.2 5.19e-4 -2.41 0.00104-3.65 0.00157-1.21 5.2e-4 -2.41 0.00104-3.65 0.00158-1.21 5.24e-4 -2.41 0.00105-3.66 0.00159-34 0.0146-67.9 0.0229-102 0.0183-1.28-1.72e-4 -2.56-3.44e-4 -3.88-5.21e-4 -6.49-8.89e-4 -13-0.00183-19.5-0.0028-1.29-1.91e-4 -2.58-3.82e-4 -3.91-5.79e-4 -2.61-3.87e-4 -5.21-7.77e-4 -7.82-0.00117-40.6-0.00597-81.2 0.00947-122 0.0416-45.6 0.0361-91.1 0.0554-137 0.0505-4.86-4.7e-4 -9.71-8.8e-4 -14.6-0.00125-1.2-1.02e-4 -2.39-2.05e-4 -3.62-3.1e-4 -18.1-0.0012-36.1 0.0108-54.2 0.0295-20.5 0.0212-41.1 0.0251-61.6 0.0057-11.5-0.0103-23-0.00681-34.5 0.0165-7.68 0.0142-15.4 0.0103-23-0.00845-4.38-0.0102-8.76-0.0124-13.1 0.00732-3.98 0.0178-7.97 0.0125-12-0.011-1.43-0.00444-2.86-5.46e-4 -4.29 0.0128-9.22 0.0802-17-0.744-24.2-7.02-1.3-1.44-1.3-1.44-3.43-4.63-0.391-0.562-0.781-1.12-1.18-1.7-3.68-6.06-3.64-12.4-2.82-19.3 1.73-6.78 5.49-11.8 11-16 7.9-4.51 15.8-4.57 24.7-4.5z" fill="#000002"/>
<path transform="translate(160 907)" d="m0 0c1.24-0.00353 2.49-0.00706 3.77-0.0107 1.39 0.00112 2.78 0.00233 4.17 0.00363 1.48-0.00226 2.95-0.00495 4.43-0.00804 4.08-0.00726 8.17-0.00823 12.2-0.00822 4.43-0.00107 8.86-0.00785 13.3-0.0139 8.8-0.0111 17.6-0.0167 26.4-0.0207 10.5-5e-3 21.1-0.0157 31.6-0.0265 25.5-0.0256 51-0.0407 76.4-0.0535 8.44-0.00425 16.9-0.00882 25.3-0.0136 44.8-0.0253 89.7-0.0473 134-0.0597 10.4-0.00292 20.8-0.00589 31.2-0.00891 1.29-3.71e-4 2.58-7.42e-4 3.91-0.00112 41.9-0.0122 83.7-0.0431 126-0.0848 43-0.0428 86-0.0694 129-0.0746 6.07-7.4e-4 12.1-0.00165 18.2-0.00266 1.2-1.91e-4 2.39-3.81e-4 3.62-5.78e-4 19.3-0.00352 38.5-0.0238 57.8-0.0502 19.3-0.0261 38.7-0.0339 58-0.0229 11.5 0.00599 23-0.00199 34.5-0.0298 7.68-0.0172 15.4-0.0163 23-6.32e-4 4.38 0.00843 8.75 0.00892 13.1-0.0126 3.98-0.0194 7.97-0.0158 12 0.00615 1.43 0.00386 2.86-6.31e-4 4.29-0.0146 10.2-0.0933 17.6 1.37 25.5 8.08 0.701 0.846 1.4 1.69 2.12 2.56 0.722 0.866 1.44 1.73 2.19 2.62 3.55 6.61 4.76 13.9 2.69 21.2-3.18 7.92-8.18 13.4-15.9 17.2-3.76 0.935-7.28 1.13-11.2 1.13-1.25 0.00302-2.5 0.00603-3.78 0.00914-1.38-0.0017-2.77-0.00349-4.15-0.00536-1.48 0.00165-2.95 0.00374-4.43 0.00622-4.08 0.00557-8.15 0.00489-12.2 0.00322-4.43-7.3e-4 -8.86 0.00429-13.3 0.00858-8.79 0.00759-17.6 0.00977-26.4 0.0103-10.5 9.13e-4 -21.1 0.00758-31.6 0.0143-25.4 0.0161-50.9 0.022-76.3 0.0267-12 0.00233-24.1 0.00594-36.1 0.0097-41.2 0.0128-82.3 0.0236-124 0.027-2.59 2.22e-4 -5.17 4.43e-4 -7.76 6.65e-4 -2.59 2.21e-4 -5.18 4.41e-4 -7.77 6.61e-4 -5.2 4.43e-4 -10.4 8.9e-4 -15.6 0.00134-1.93 1.64e-4 -1.93 1.64e-4 -3.91 3.31e-4 -41.8 0.00363-83.6 0.0196-125 0.0429-44.2 0.0246-88.4 0.0383-133 0.0395-4.85 1.71e-4 -9.7 3.87e-4 -14.5 6.34e-4 -1.19 5.58e-5 -2.39 1.12e-4 -3.62 1.69e-4 -19.2 0.00115-38.5 0.0122-57.7 0.0267-19.3 0.0143-38.6 0.0176-58 0.00956-11.5-0.00447-23-5.58e-4 -34.5 0.0152-7.67 0.00972-15.3 0.0086-23-0.00144-4.37-0.00541-8.74-0.00603-13.1 0.00651-3.98 0.0113-7.95 0.00884-11.9-0.00467-1.43-0.00244-2.86 1.64e-4 -4.29 0.0084-9.96 0.0536-18.2-0.454-25.7-7.54-5.71-6.54-7.4-13.1-7.03-21.7 0.968-7.16 3.79-12.5 9.42-17.1 5.7-3.93 9.85-6.12 16.9-6.13z" fill="#000002"/>
<path transform="translate(1588 1338)" d="m0 0c6.26 4.98 9.46 11.1 11.8 18.7 0.202 9.51-3.65 17-10.1 23.8-0.781 0.83-0.781 0.83-1.58 1.68-6.22 6.57-12.6 13-19 19.4-2.07 2.07-4.13 4.15-6.19 6.23-1.33 1.34-2.67 2.67-4.01 4.01-0.604 0.611-1.21 1.22-1.83 1.85-7.27 7.23-14 12.2-24.6 12.3-8.47-0.154-13.3-2.36-19.6-8.31-5.79-7.72-7.12-14.5-6-24 1.69-4.78 4.2-8.8 7-13h2c0.26-0.584 0.521-1.17 0.789-1.77 1.29-2.38 2.69-3.97 4.58-5.89 0.688-0.701 1.38-1.4 2.09-2.12 0.746-0.748 1.49-1.5 2.26-2.27 0.773-0.779 1.55-1.56 2.34-2.36 1.64-1.65 3.28-3.29 4.92-4.94 2.49-2.5 4.97-5.01 7.44-7.52 1.6-1.6 3.2-3.21 4.8-4.81 1.09-1.12 1.09-1.12 2.21-2.25 11.4-11.3 25.8-18.4 40.7-8.66z" fill="#000002"/>
<path transform="translate(1468,1458)" d="m0 0c6 4.33 9.24 9.86 11 17 1.03 7.49 0.0823 13.6-4 20-7.82 9.3-16.6 17.8-25.2 26.4-2.17 2.16-4.33 4.33-6.5 6.5-1.39 1.39-2.78 2.78-4.18 4.17-0.64 0.642-1.28 1.28-1.94 1.94-7.17 7.13-13.1 12-23.5 12.5-8.25-0.297-14.3-2.65-20.1-8.69-5.09-6.31-7.25-12-6.89-20.2 0.979-7.73 4.24-12.8 9.55-18.4 0.523-0.558 1.05-1.12 1.58-1.69 6.04-6.41 12.2-12.7 18.4-18.9 1.97-1.98 3.94-3.98 5.9-5.97 13.1-13.2 27-25.2 45.9-14.6z" fill="#000002"/>
<path transform="translate(1548,1458)" d="m0 0c5.96 4.7 11.3 10.1 16.7 15.5 0.798 0.792 1.6 1.58 2.42 2.4 1.67 1.67 3.35 3.33 5.02 5 2.55 2.54 5.1 5.06 7.66 7.59 1.63 1.63 3.27 3.26 4.9 4.88 0.758 0.746 1.52 1.49 2.3 2.26 6.67 6.7 12.3 13.6 13 23.4-0.43 8.79-4.43 15.9-10.8 21.9-7.02 4.68-14.1 6.16-22.3 4.76-4.8-1.24-7.94-3.36-11.6-6.71-0.875-0.807-1.75-1.61-2.65-2.44-3.97-3.75-7.9-7.55-11.8-11.4-0.82-0.812-1.64-1.62-2.48-2.46-1.71-1.7-3.43-3.4-5.14-5.1-1.74-1.73-3.49-3.46-5.24-5.18-2.56-2.51-5.1-5.04-7.64-7.57-0.779-0.762-1.56-1.52-2.36-2.31-6.32-6.35-10.4-12.5-11.3-21.5 0.642-8.09 3.5-15.3 9.31-20.9 9.87-7.56 21.3-8.44 32-2z" fill="#000002"/>
<path transform="translate(1427,1337)" d="m0 0c9.51 7.33 17.8 16.6 26.3 25 1.69 1.68 3.39 3.36 5.1 5.04 2.49 2.44 4.96 4.9 7.43 7.36 0.757 0.74 1.51 1.48 2.29 2.24 6.55 6.58 10.9 13.3 11.2 22.9-0.0792 7.28-2.13 12.9-7.05 18.3-6.68 6.04-13.3 8.3-22.3 8.15-6.15-0.707-10.2-2.89-14.7-7.08-0.872-0.806-1.74-1.61-2.64-2.44-3.97-3.76-7.89-7.55-11.8-11.4-0.82-0.812-1.64-1.62-2.48-2.46-1.71-1.7-3.43-3.4-5.14-5.1-1.74-1.73-3.49-3.46-5.24-5.18-2.56-2.51-5.1-5.04-7.64-7.57-0.779-0.762-1.56-1.52-2.36-2.31-6.39-6.42-10.5-12.6-11.1-21.9 0.295-8.12 3.55-14.7 9.09-20.6 8.99-7.27 20.8-8.16 31-3z" fill="#000002"/>
<path transform="translate(277 215)" d="m0 0c7.83 4.03 13 10.1 15.7 18.4 1.27 5.49 1.07 11.1 1.04 16.7 0.00287 1.32 0.00574 2.64 0.0087 4 0.0044 2.78-0.00192 5.56-0.016 8.34-0.0171 3.54-0.00724 7.08 0.0107 10.6 0.0135 3.41 0.00402 6.82-0.00339 10.2 0.00607 1.26 0.0121 2.52 0.0184 3.82-0.0851 10.7-1.64 18.3-9.19 26.1-6.43 5.65-12.8 6.58-21.2 6.27-7.52-0.78-13.1-4.75-18-10.3-3.52-6-5.11-11.8-5.16-18.7-0.00961-1.15-0.0192-2.3-0.0291-3.49-0.00425-1.24-0.0085-2.48-0.0129-3.76-0.0057-1.28-0.0114-2.57-0.0173-3.89-0.0105-2.72-0.0163-5.43-0.0198-8.15-0.00547-3.46-0.0295-6.92-0.058-10.4-0.0233-3.32-0.0251-6.64-0.0299-9.97-0.0123-1.23-0.0247-2.46-0.0374-3.73 0.0272-10.6 1.8-19.2 9.37-26.9 8.13-6.2 17.7-8.29 27.7-5.16z" fill="#000002"/>
<path transform="translate(171 160)" d="m0 0c1.91-0.00431 1.91-0.00431 3.85-0.0087 2.68-0.00203 5.35 0.0019 8.03 0.016 3.4 0.0171 6.8 0.00723 10.2-0.0107 3.28-0.0135 6.57-0.00402 9.85 0.00339 1.81-0.00911 1.81-0.00911 3.66-0.0184 10.1 0.0828 18.7 1.24 26.1 8.4 5.15 5.91 8 12.1 7.76 20-0.841 7.79-4.73 14.2-10.5 19.4-8.39 6.65-18.8 5.78-29 5.79-1.19 0.00333-2.38 0.00666-3.6 0.0101-2.5 0.00505-5.01 0.00741-7.51 0.00725-3.81 0.00219-7.63 0.0204-11.4 0.0393-2.44 0.00293-4.88 0.00492-7.32 0.00586-1.13 0.00719-2.26 0.0144-3.43 0.0218-10.5-0.0302-18.3-1-26.2-8.25-5.28-5.57-7.18-10.8-7.5-18.3 0.235-8.54 3.07-14.7 9.19-20.6 7.51-6.77 18.4-6.51 27.8-6.46z" fill="#000002"/>
<path transform="translate(280 56.7)" d="m0 0c7.5 4.93 10.8 10.7 13 19.3 0.526 4.71 0.539 9.37 0.496 14.1 0.00146 1.32 0.00291 2.63 0.00441 3.99 0.00137 2.77-0.011 5.54-0.034 8.3-0.0284 3.52-0.0256 7.05-0.0129 10.6 0.00868 3.4-0.00651 6.8-0.02 10.2 0.00294 1.25 0.00587 2.51 0.0089 3.8-0.117 10.9-1.79 18.2-9.38 26.2-6.16 5.63-13 6.27-21 6.15-8.11-0.695-12.9-4.55-18.4-10.4-4.99-8.4-5.17-17.8-5.12-27.3-0.00287-1.25-0.00574-2.5-0.0087-3.79-0.00255-3.29 0.0094-6.59 0.0263-9.88 0.00586-2.01 4.75e-6 -4.02-0.0103-6.03-0.0186-3.89-0.0163-7.78-0.00732-11.7-0.00607-1.19-0.0121-2.38-0.0184-3.6 0.0788-9.38 1.46-17.1 7.42-24.6 9.14-8.73 21.4-11.4 33-5.31z" fill="#000002"/>
<path transform="translate(323 160)" d="m0 0c1.72-0.0144 1.72-0.0144 3.48-0.0291 1.23-0.00425 2.47-0.0085 3.74-0.0129 1.28-0.0057 2.56-0.0114 3.88-0.0173 2.71-0.0105 5.41-0.0163 8.12-0.0198 3.44-0.00547 6.88-0.0295 10.3-0.058 3.31-0.0233 6.62-0.0251 9.93-0.0299 1.22-0.0123 2.45-0.0247 3.71-0.0374 10.8 0.0279 19.2 1.47 27.1 9.12 4.79 5.61 6.68 12 6.91 19.2-0.851 7.76-4.72 14.2-10.4 19.4-8.38 6.67-19.7 5.78-29.8 5.79-1.75 0.00499-1.75 0.00499-3.53 0.0101-2.46 0.00504-4.91 0.00741-7.37 0.00725-3.74 0.00219-7.48 0.0204-11.2 0.0393-2.4 0.00293-4.79 0.00492-7.19 0.00586-1.66 0.0108-1.66 0.0108-3.36 0.0218-10.5-0.0306-18.2-1.05-26-8.25-5.28-5.57-7.18-10.8-7.5-18.3 0.195-7.38 2.18-13 7.18-18.5 6.61-5.99 13.3-8.26 22.1-8.32z" fill="#000002"/>
</svg>
