<?xml version="1.0" encoding="UTF-8"?>
<svg version="1.1" xmlns="http://www.w3.org/2000/svg" width="512" height="512">
<path d="M0 0 C1.36572144 0.00241699 1.36572144 0.00241699 2.7590332 0.00488281 C22.13726476 0.34534955 39.72929552 5.04275737 54.31640625 18.1796875 C62.01286202 26.20328569 67.07109797 37.37972484 68.3125 48.375 C69.0859375 48.46136719 69.859375 48.54773437 70.65625 48.63671875 C80.40682247 49.95208063 86.92837412 52.77522783 93.125 60.5546875 C96.35803792 65.51059432 96.54738144 70.62040467 96.3125 76.375 C106.19677084 77.62560134 112.94199212 77.84291936 121.0625 71.8125 C130.03948131 63.1957312 131.55425558 46.56498264 134.53076172 34.94628906 C135.23171533 32.21998621 135.94350899 29.4966786 136.65625 26.7734375 C136.96737732 25.53719131 136.96737732 25.53719131 137.28479004 24.27597046 C139.14354566 17.20092588 141.4614017 10.29135463 147.25 5.5 C147.89839844 4.94570312 148.54679687 4.39140625 149.21484375 3.8203125 C155.70197192 -0.64940337 162.6985249 -0.41379786 170.3125 0.375 C177.73952781 2.50692387 182.55951527 6.6804867 186.3125 13.375 C187.97152899 16.975935 188.56096184 19.76523695 188.55300903 23.72175598 C188.55713303 25.30971985 188.55713303 25.30971985 188.56134033 26.92976379 C188.55414978 28.08062973 188.54695923 29.23149567 188.53955078 30.41723633 C188.53984283 31.63716278 188.54013489 32.85708923 188.54043579 34.11398315 C188.53928282 37.45045512 188.52926603 40.78667829 188.51528788 44.12310624 C188.50276861 47.61312515 188.50160908 51.10314753 188.49923706 54.59318542 C188.4930258 61.19812866 188.47661979 67.80300554 188.45653808 74.40791959 C188.43416805 81.92904391 188.42318288 89.45017143 188.41314721 96.97132075 C188.39225324 112.43925224 188.35708417 127.90711755 188.3125 143.375 C189.41190918 143.35373047 190.51131836 143.33246094 191.64404297 143.31054688 C197.30522229 143.41001123 200.96978528 145.89201053 205.3125 149.375 C210.56067744 155.61542967 211.3125 160.75325389 211.3125 168.75 C211.48504979 174.00028084 211.48504979 174.00028084 214.1328125 178.41015625 C216.4297594 179.847095 216.4297594 179.847095 218.89453125 181.06640625 C225.43388798 184.60547653 229.66459871 191.59865046 232.3125 198.375 C233.652494 203.00924911 233.6121715 207.58136844 233.6875 212.375 C233.72488281 213.27734375 233.76226563 214.1796875 233.80078125 215.109375 C233.8887322 221.71546892 233.8887322 221.71546892 231.015625 225.00390625 C227.33639298 226.87010631 225.23744387 226.46526219 221.3125 225.375 C218.49305817 223.40139072 217.94640692 221.67242809 217.3125 218.375 C217.21277587 216.12566687 217.13129232 213.87549152 217.0625 211.625 C216.53617631 203.71369697 214.48816976 199.39188627 208.8125 194 C203.04384593 190.25037486 198.21810415 190.07788562 191.50854492 190.08447266 C190.52580093 190.07775543 189.54305695 190.07103821 188.53053284 190.06411743 C185.28462657 190.04513386 182.03892706 190.04121295 178.79296875 190.0390625 C176.53241389 190.03263454 174.27185987 190.02590618 172.01130676 190.01889038 C167.27273633 190.0069165 162.5342388 190.00320965 157.7956543 190.00439453 C151.7328881 190.00459766 145.67059099 189.97730221 139.60793591 189.94285011 C134.9383989 189.92057805 130.2689747 189.9165571 125.59939003 189.91761398 C123.36474301 189.91525824 121.13009287 189.90643627 118.89549828 189.89094925 C115.76488074 189.87128491 112.63527357 189.87712975 109.50463867 189.88916016 C108.58748077 189.87792114 107.67032288 189.86668213 106.72537231 189.85510254 C100.78046099 189.91295735 96.28118936 191.01195163 91.3125 194.375 C89.21254301 196.52305352 89.21254301 196.52305352 87.875 198.9375 C87.40191406 199.70191406 86.92882812 200.46632812 86.44140625 201.25390625 C84.25194665 205.36766598 84.16339626 208.72306298 84.10717773 213.32495117 C84.09714501 214.03899014 84.08711229 214.75302912 84.07677555 215.48870564 C84.04541097 217.79842708 84.02062787 220.1081657 83.99609375 222.41796875 C83.97768842 223.84461016 83.95885163 225.27124607 83.9395752 226.69787598 C83.8711519 231.98601888 83.8110835 237.27426722 83.75 242.5625 C83.605625 254.380625 83.46125 266.19875 83.3125 278.375 C127.5325 278.375 171.7525 278.375 217.3125 278.375 C217.3125 270.125 217.3125 261.875 217.3125 253.375 C220.3125 246.375 220.3125 246.375 222.3125 245.375 C228.42145815 244.80935573 228.42145815 244.80935573 231.50671387 246.76791382 C234.29346181 250.79125408 233.87039652 254.61517531 233.83007812 259.40087891 C233.84059204 260.92847839 233.84059204 260.92847839 233.85131836 262.48693848 C233.86894314 265.85875615 233.85725395 269.22973602 233.84375 272.6015625 C233.84644486 274.9484371 233.85032723 277.29531062 233.85534668 279.6421814 C233.86124887 284.56673792 233.8526599 289.4910045 233.83398438 294.41552734 C233.81127012 300.71021623 233.82426608 307.00422007 233.84827423 313.29888344 C233.86277689 318.14953706 233.85810439 323.00003029 233.84776306 327.85068893 C233.84510421 330.17019101 233.84833575 332.48970789 233.85768127 334.80919266 C233.86791162 338.06410076 233.85225102 341.31792582 233.83007812 344.57275391 C233.83817505 345.52169525 233.84627197 346.4706366 233.85461426 347.44833374 C233.74152075 356.47097406 230.84601985 364.21397432 225.3125 371.375 C224.29414063 372.20515625 223.27578125 373.0353125 222.2265625 373.890625 C218.7557545 377.32867956 218.61558219 380.32970581 218.52734375 385.07421875 C218.53894531 385.99847656 218.55054688 386.92273438 218.5625 387.875 C218.55478536 389.71880007 218.53936316 391.56258661 218.515625 393.40625 C218.52577637 394.62151367 218.52577637 394.62151367 218.53613281 395.86132812 C218.3125 398.375 218.3125 398.375 217.21517944 401.15068054 C216.15376177 404.94200389 216.53919522 406.73303236 217.64599609 410.4777832 C217.98649994 411.66374588 218.32700378 412.84970856 218.67782593 414.0716095 C218.96074053 415.01226226 218.96074053 415.01226226 219.24937057 415.97191811 C219.8460263 417.95938718 220.41971414 419.95227473 220.98794556 421.94804382 C222.40549242 426.91154736 223.85527649 431.86544764 225.31536865 436.81658936 C237.16311343 476.99232085 237.16311343 476.99232085 230.7734375 491.87890625 C225.46145614 500.95472467 217.40805924 508.52867496 207.31002593 511.75386059 C200.36740353 513.19249247 193.129806 512.78824546 186.06863403 512.76268005 C184.19604354 512.76685527 182.32345558 512.77233382 180.4508723 512.77899987 C175.31607812 512.79344846 170.18144454 512.78921153 165.04664159 512.78183305 C159.50459999 512.77710225 153.96259319 512.78961047 148.42056274 512.79985046 C137.5674704 512.81704554 126.71443593 512.81787698 115.8613335 512.81263756 C107.03964885 512.80859592 98.21798129 512.81003935 89.39629745 512.81538582 C87.51286949 512.81650845 87.51286949 512.81650845 85.59139248 512.81765376 C83.04059133 512.81918524 80.48979017 512.82072359 77.93898903 512.82226873 C60.81282517 512.83209724 43.68666785 512.83626151 26.56050301 512.82864285 C25.89105599 512.82834567 25.22160898 512.8280485 24.5318757 512.82774232 C19.0957834 512.82529348 13.65969118 512.82268184 8.22359896 512.82005819 C-12.97840551 512.80995669 -34.18033079 512.81831037 -55.38232422 512.84155273 C-79.21409151 512.86763581 -103.04581146 512.88042093 -126.87759793 512.87336498 C-139.49195955 512.8698715 -152.10625614 512.87211338 -164.72060776 512.88961601 C-175.45900579 512.90433095 -186.19729299 512.90498261 -196.93568884 512.8875451 C-202.41350434 512.87902696 -207.89112178 512.87690563 -213.368927 512.89219666 C-218.38638661 512.90602916 -223.40347821 512.90129883 -228.42091645 512.88195742 C-230.23307772 512.87819272 -232.04526837 512.8811329 -233.8574035 512.89156907 C-247.75210818 512.96588017 -258.11743089 511.78092689 -268.52734375 501.66796875 C-277.02918808 492.64340705 -279.45560231 484.00113563 -279.1418457 471.56591797 C-278.47925483 460.90251082 -274.82947902 450.57512675 -271.875 440.375 C-271.12215997 437.72312835 -270.37652023 435.06924972 -269.63110352 432.4152832 C-268.17743268 427.2480476 -266.7154936 422.08326066 -265.24516964 416.92073917 C-261.81473883 404.87166711 -258.45734841 392.80267515 -255.109375 380.73046875 C-253.95383295 376.5646001 -252.79823636 372.39874658 -251.64257812 368.23291016 C-251.35340515 367.19039597 -251.06423218 366.14788177 -250.76629639 365.07377625 C-248.71702892 357.68853593 -246.6605457 350.30533185 -244.59960938 342.92333984 C-244.16751915 341.37563023 -244.16751915 341.37563023 -243.72669983 339.79665375 C-242.58089809 335.69290738 -241.43496794 331.58919688 -240.28900146 327.48549652 C-236.89430749 315.3261831 -233.52162277 303.16129363 -230.18873405 290.98489571 C-228.91930356 286.35335567 -227.64053102 281.72438528 -226.36282349 277.09512329 C-225.71472952 274.73642484 -225.07139693 272.37641185 -224.43331909 270.01498413 C-216.24590418 239.72235198 -216.24590418 239.72235198 -201.71875 230.06640625 C-193.1679957 225.28289001 -183.08662026 225.0770912 -173.5246582 225.14794922 C-172.46966629 225.14765717 -171.41467438 225.14736511 -170.32771301 225.14706421 C-166.88114864 225.14844454 -163.43480731 225.16394416 -159.98828125 225.1796875 C-157.58261737 225.18342224 -155.17695196 225.18626704 -152.77128601 225.18826294 C-146.4699781 225.19586304 -140.16876384 225.21548016 -133.86749268 225.2376709 C-127.42534654 225.25820769 -120.98318513 225.26728135 -114.54101562 225.27734375 C-101.92313736 225.29872967 -89.30532369 225.33243165 -76.6875 225.375 C-76.62514947 224.64118009 -76.56279894 223.90736017 -76.498559 223.15130329 C-76.41339747 222.17722114 -76.32823595 221.20313898 -76.24049377 220.19953918 C-76.11603048 218.75849681 -76.11603048 218.75849681 -75.98905277 217.28834248 C-75.52161676 212.77237939 -74.69323403 208.3431381 -73.83984375 203.88671875 C-73.66369034 202.93988724 -73.48753693 201.99305573 -73.30604553 201.01753235 C-72.5618151 197.01765242 -71.80592063 193.02000304 -71.05053711 189.0222168 C-70.49676578 186.08201705 -69.94937952 183.14067785 -69.40234375 180.19921875 C-69.14456398 178.85376228 -69.14456398 178.85376228 -68.88157654 177.48112488 C-67.20224577 169.22012166 -67.20224577 169.22012166 -69.1875 161.25 C-73.37082661 152.11039446 -70.15847282 140.50124978 -68.34375 131.01757812 C-67.93340246 128.85338944 -67.55200695 126.6853012 -67.171875 124.515625 C-66.91317716 123.12467922 -66.65282129 121.73404056 -66.390625 120.34375 C-66.16020508 119.10044922 -65.92978516 117.85714844 -65.69238281 116.57617188 C-64.59459337 113.07903505 -63.55609886 111.6068803 -60.6875 109.375 C-57.54919424 108.45966082 -55.57667552 108.10330748 -52.4375 109.0625 C-50.28717793 110.67524155 -49.66646629 111.87692926 -48.6875 114.375 C-48.51604703 122.76510674 -50.6931811 131.28605331 -52.31445312 139.4765625 C-54.37164438 148.00359476 -54.37164438 148.00359476 -52.67578125 156.203125 C-49.60719717 158.01172072 -46.33699029 158.52864628 -42.875 159.125 C-42.17568359 159.26292969 -41.47636719 159.40085938 -40.75585938 159.54296875 C-36.51705914 160.31221781 -32.89584462 160.65276022 -28.6875 159.375 C-27.4064183 156.6591068 -26.55058511 154.22673999 -25.6875 151.375 C-20.77434111 137.49246965 -13.51787373 128.28069292 -0.53125 121.19921875 C5.229316 118.57248179 11.19156781 117.61576499 17.375 116.5 C24.77125678 115.1378876 30.73770139 113.74284553 36.3125 108.375 C36.87839844 107.85035156 37.44429688 107.32570313 38.02734375 106.78515625 C49.66828753 94.68882102 51.73160041 70.94338508 51.9375 54.9375 C51.60365433 45.54345379 48.70458089 36.75870968 42.07421875 29.89453125 C33.81814339 22.77343743 24.71750504 20.55435122 14.3125 18.375 C13.49523437 18.18292969 12.67796875 17.99085937 11.8359375 17.79296875 C-0.45710766 15.75681421 -11.44284301 16.98587786 -21.98828125 23.87890625 C-31.07116073 30.97757853 -34.45731889 41.34408783 -36.3125 52.3125 C-36.51359375 53.38918945 -36.7146875 54.46587891 -36.921875 55.57519531 C-37.71715757 59.842289 -38.46957728 64.11613986 -39.20996094 68.39306641 C-39.53673061 70.26928487 -39.87055027 72.14429316 -40.21240234 74.01782227 C-40.52012087 75.70647908 -40.81064979 77.39839597 -41.08056641 79.09350586 C-42.01855195 84.23058734 -43.32172463 87.12333941 -47.6875 90.375 C-50.58500624 90.97997383 -52.93818604 90.42603363 -55.6875 89.375 C-57.75 87.4375 -57.75 87.4375 -58.6875 84.375 C-58.63672845 75.69652742 -56.44311593 66.8618462 -54.84106445 58.36181641 C-54.37637688 55.88234673 -53.9272514 53.40036817 -53.47851562 50.91796875 C-50.57085791 35.1906858 -45.94584687 21.56874049 -33.08984375 11.00390625 C-22.89395443 4.09059593 -12.3451779 -0.02300415 0 0 Z M155.3125 20.375 C153.87657321 23.79167936 153.03125756 27.31871608 152.15625 30.9140625 C151.88663452 31.95009613 151.61701904 32.98612976 151.3392334 34.05355835 C150.47946521 37.36482353 149.64415376 40.6815715 148.8125 44 C147.97841435 47.29625627 147.13879163 50.59076338 146.2857666 53.88217163 C145.7564953 55.92723624 145.23812176 57.9751649 144.73278809 60.02627563 C141.77345761 71.52748782 137.18917465 81.38220462 126.890625 87.91015625 C115.29430144 94.08645902 105.05948426 93.39255861 92.3125 92.375 C91.89742188 93.61507812 91.48234375 94.85515625 91.0546875 96.1328125 C89.72844905 99.66063788 88.40858048 101.83382949 85.4375 104.25 C84.78007812 104.80429688 84.12265625 105.35859375 83.4453125 105.9296875 C77.05211692 110.26207278 71.12006766 109.40959618 63.70507812 108.76953125 C58.65593286 108.51105475 58.65593286 108.51105475 54.49438477 111.03540039 C52.9793982 113.09048146 51.64329831 115.19756795 50.3125 117.375 C41.09191011 127.39304631 30.6486961 130.71253463 17.5690918 132.85644531 C8.6432279 134.39505501 0.84626787 137.82344751 -5.02734375 145.015625 C-8.52518944 150.07633791 -9.97106042 155.43721287 -11.65234375 161.3046875 C-13.43890662 166.60370039 -15.98070051 170.23713368 -20.6875 173.375 C-21.50093404 175.60855582 -21.50093404 175.60855582 -21.93359375 178.265625 C-22.12928955 179.2752832 -22.32498535 180.28494141 -22.52661133 181.32519531 C-22.82281372 182.95859863 -22.82281372 182.95859863 -23.125 184.625 C-23.33600342 185.73713867 -23.54700684 186.84927734 -23.7644043 187.99511719 C-24.20068144 190.30684499 -24.63101948 192.61970089 -25.05566406 194.93359375 C-25.65690124 198.20833845 -26.27521824 201.47937806 -26.8984375 204.75 C-27.26666304 206.70813842 -27.63389817 208.66646342 -28 210.625 C-28.25704712 211.98866699 -28.25704712 211.98866699 -28.51928711 213.37988281 C-28.67405518 214.22905273 -28.82882324 215.07822266 -28.98828125 215.953125 C-29.12403564 216.68950195 -29.25979004 217.42587891 -29.3996582 218.18457031 C-29.79607393 220.83301988 -29.79607393 220.83301988 -29.6875 225.375 C2.3225 225.375 34.3325 225.375 67.3125 225.375 C67.6425 218.445 67.9725 211.515 68.3125 204.375 C71.85609834 192.56300554 75.38995341 185.81648553 85.4921875 178.84765625 C93.49088611 174.67105046 100.84023485 173.91464209 109.78515625 173.86328125 C110.9488121 173.84533005 112.11246796 173.82737885 113.31138611 173.80888367 C116.99922142 173.75504383 120.68692924 173.72096881 124.375 173.6875 C126.88738743 173.65430378 129.39975809 173.61981201 131.91210938 173.58398438 C138.04545853 173.49933248 144.17882474 173.43087186 150.3125 173.375 C150.36656006 172.41658203 150.42062012 171.45816406 150.47631836 170.47070312 C150.55503174 169.21193359 150.63374512 167.95316406 150.71484375 166.65625 C150.78952881 165.40908203 150.86421387 164.16191406 150.94116211 162.87695312 C151.64241231 156.26371654 153.91937799 152.23047809 159 148 C161.86545901 145.80335262 164.4883517 145.03787884 167.96801758 144.29833984 C168.78087723 144.12378265 169.59373688 143.94922546 170.43122864 143.76937866 C171.05204819 143.6392337 171.67286774 143.50908875 172.3125 143.375 C172.42932464 127.55459814 172.51748366 111.73431281 172.57156086 95.91358662 C172.5973378 88.56765126 172.63247805 81.22198399 172.68969727 73.8762207 C172.73954849 67.47329964 172.77179474 61.07057274 172.78294247 54.667463 C172.78945854 51.27724846 172.80476092 47.88758932 172.84115028 44.49755287 C172.87735966 40.71197984 172.88244841 36.92756358 172.88012695 33.1418457 C172.89810333 32.01903198 172.91607971 30.89621826 172.93460083 29.73937988 C172.91933766 23.53056398 172.91933766 23.53056398 169.99577332 18.17472839 C164.38053375 14.40846797 159.74943253 15.67845972 155.3125 20.375 Z M68.3125 65.375 C66.65924922 69.97535001 65.57123792 74.57756557 64.6875 79.375 C64.5534375 80.06078125 64.419375 80.7465625 64.28125 81.453125 C63.5280409 85.48048793 63.17175886 89.28071228 63.3125 93.375 C66.44650885 94.94200442 69.94405095 95.22664561 73.3125 94.375 C77.19675536 90.653473 78.15229108 87.07665198 79.125 81.875 C79.50591797 79.94140625 79.50591797 79.94140625 79.89453125 77.96875 C80.35512362 74.00851652 80.33974123 71.06692674 78.25 67.625 C75.13596236 65.61594346 71.97667153 65.67534193 68.3125 65.375 Z M167.65625 160.78515625 C165.54491396 164.3681054 165.54491396 164.3681054 166.3125 173.375 C175.8825 173.375 185.4525 173.375 195.3125 173.375 C195.92105108 165.19398053 195.92105108 165.19398053 193.96875 161.34765625 C189.81839519 158.26540746 185.84391564 158.68620259 180.8125 158.8125 C179.86246094 158.80154297 178.91242188 158.79058594 177.93359375 158.77929688 C174.02010151 158.82057844 171.14151188 158.93489222 167.65625 160.78515625 Z M-51.6875 174.375 C-53.18604347 182.30449915 -54.68171923 190.23453228 -56.17406845 198.16519928 C-56.86765612 201.85061768 -57.56210804 205.53586813 -58.25878906 209.22070312 C-61.6020194 226.90724759 -64.83760028 244.60060836 -67.6875 262.375 C-66.1051994 262.71320166 -64.52160625 263.04535939 -62.9375 263.375 C-61.61492187 263.6534375 -61.61492187 263.6534375 -60.265625 263.9375 C-57.46606035 264.48653675 -57.46606035 264.48653675 -53.6875 264.375 C-51.28019453 254.4582282 -49.35150133 244.501542 -47.55078125 234.4609375 C-47.26380591 232.87241052 -46.97662655 231.28392039 -46.68925476 229.69546509 C-46.09314376 226.39645818 -45.49923006 223.09706588 -44.90698242 219.79736328 C-44.14768027 215.56775691 -43.38313564 211.33911784 -42.61703205 207.11073875 C-42.02574568 203.84435631 -41.43699937 200.57752012 -40.84905052 197.31053543 C-40.5679039 195.74987049 -40.28600962 194.18934005 -40.00335121 192.62894821 C-39.61075863 190.45930034 -39.22154388 188.28907342 -38.83325195 186.11865234 C-38.61135696 184.88545258 -38.38946198 183.65225281 -38.1608429 182.38168335 C-37.60974256 179.38836898 -37.60974256 179.38836898 -37.6875 176.375 C-39.2698006 176.03679834 -40.85339375 175.70464061 -42.4375 175.375 C-43.31921875 175.189375 -44.2009375 175.00375 -45.109375 174.8125 C-47.90893965 174.26346325 -47.90893965 174.26346325 -51.6875 174.375 Z M-199.6875 249.375 C-202.73849468 254.18345721 -204.64681723 258.78011236 -206.11914062 264.28881836 C-206.33186017 265.05352699 -206.54457972 265.81823563 -206.76374531 266.60611725 C-207.46615877 269.13995118 -208.15492628 271.6772849 -208.84375 274.21484375 C-209.34295412 276.02587487 -209.84303074 277.83666569 -210.34391785 279.64723206 C-211.4117965 283.51429228 -212.47370396 287.38292271 -213.53085327 291.25292969 C-215.19981036 297.36260361 -216.88170003 303.46866937 -218.56567383 309.57421875 C-220.56876376 316.84016935 -222.56877618 324.10695208 -224.56434727 331.37497139 C-228.85049904 346.98541991 -233.17516598 362.58500883 -237.51416969 378.18083763 C-238.951915 383.34960058 -240.38467899 388.51972674 -241.81542969 393.69042969 C-245.49286003 406.97250887 -249.20871411 420.24038932 -253.03515625 433.48046875 C-254.02609641 436.93156941 -255.01595168 440.38297948 -256.00552368 443.83447266 C-256.90074384 446.93519002 -257.81434652 450.03004501 -258.72924805 453.125 C-263.58918184 468.38506721 -263.58918184 468.38506721 -261.68041992 483.84985352 C-258.6685396 489.30596778 -253.59678168 494.2261703 -247.6875 496.375 C-242.76295665 497.21710044 -238.03414939 497.50096422 -233.04213142 497.50363445 C-231.92986422 497.50626401 -231.92986422 497.50626401 -230.79512697 497.50894669 C-228.31474393 497.51359217 -225.83441988 497.51114494 -223.35403442 497.50871277 C-221.55599383 497.51058147 -219.75795364 497.51288241 -217.95991409 497.51557809 C-213.02201424 497.52169512 -208.08413132 497.52156261 -203.14622855 497.52038372 C-197.81961032 497.52017969 -192.49299753 497.52569864 -187.16638184 497.53044128 C-176.73213852 497.53874763 -166.29790085 497.54149611 -155.86365451 497.54205366 C-147.38325253 497.54252878 -138.90285241 497.54458334 -130.42245102 497.54775429 C-106.3822357 497.55656044 -82.34202484 497.56117367 -58.3018079 497.56042381 C-57.00580016 497.56038386 -55.70979242 497.5603439 -54.37451172 497.56030273 C-53.07692298 497.56026185 -51.77933425 497.56022097 -50.44242464 497.56017885 C-29.40686498 497.55977229 -8.3713232 497.56934463 12.66423129 497.5834411 C34.26016462 497.597799 55.85608921 497.60471162 77.45202744 497.60384732 C89.5778473 497.60351518 101.7036484 497.60627016 113.82946396 497.61702538 C124.15218729 497.62612261 134.47488336 497.62831198 144.79760896 497.62151595 C150.06448469 497.61824697 155.33130808 497.61820777 160.59817886 497.6268692 C165.42060471 497.63471822 170.24293657 497.6333191 175.06536008 497.62458507 C176.80890686 497.62304657 178.55246059 497.62487938 180.29599915 497.63044515 C196.26724181 498.06919513 196.26724181 498.06919513 210.3125 491.375 C215.13377562 486.39301519 217.59962538 482.43112574 217.64257812 475.44262695 C217.52441317 468.34957805 216.02640308 462.06751776 214.03125 455.29296875 C213.69830933 454.11277664 213.36536865 452.93258453 213.02233887 451.71662903 C211.96822264 447.99386041 210.89084143 444.278315 209.8125 440.5625 C209.08828688 438.02062535 208.36561599 435.47831076 207.64453125 432.93554688 C205.88496993 426.74350423 204.10632253 420.55719883 202.3125 414.375 C201.69299469 414.38016632 201.07348938 414.38533264 200.43521118 414.39065552 C199.21745499 414.39668289 199.21745499 414.39668289 197.97509766 414.40283203 C196.76740219 414.41058151 196.76740219 414.41058151 195.53530884 414.41848755 C188.90796349 414.28882862 183.73604034 411.40689348 178.8203125 407.16796875 C172.87551603 400.0988973 173.58183043 393.89497825 172.3125 384.375 C157.7925 384.375 143.2725 384.375 128.3125 384.375 C127.9825 388.665 127.6525 392.955 127.3125 397.375 C124.63718818 404.29933647 122.13099422 409.11459736 115.3125 412.375 C108.23944648 415.23893578 101.12771625 414.78279456 94.125 411.875 C88.5693319 408.86382789 85.26801575 403.24154725 83.3125 397.375 C83.26795593 395.93688761 83.27339249 394.49686425 83.3125 393.05859375 C83.67831536 381.39856074 83.67831536 381.39856074 78 371.6875 C77.18917969 370.95789063 76.37835938 370.22828125 75.54296875 369.4765625 C70.530593 364.75386871 68.5695801 357.75848084 68.1738348 351.01061535 C68.16738225 350.1892978 68.1609297 349.36798025 68.15428162 348.52177429 C68.13959839 347.09788643 68.13959839 347.09788643 68.12461853 345.64523315 C68.11886307 344.61592682 68.1131076 343.58662048 68.10717773 342.52612305 C68.09727814 341.43299301 68.08737854 340.33986298 68.07717896 339.21360779 C68.04562121 335.60466672 68.02082905 331.99571249 67.99609375 328.38671875 C67.97551929 325.88279378 67.95452269 323.37887225 67.93312073 320.87495422 C67.88358822 314.96067804 67.83830973 309.046379 67.79509836 303.13205415 C67.73211886 294.55353566 67.66051996 285.97508835 67.58997345 277.39662933 C67.49202801 265.38945424 67.40312798 253.3822426 67.3125 241.375 C34.3125 241.375 1.3125 241.375 -32.6875 241.375 C-37.69732191 256.40446572 -38.85654182 270.65269552 -38.49661255 286.39080811 C-38.12901622 303.00494776 -39.26847682 318.65740644 -42.375 335 C-42.54535767 335.92187103 -42.71571533 336.84374207 -42.89123535 337.79354858 C-43.38605442 340.42266563 -43.90989288 343.0437455 -44.44921875 345.6640625 C-44.67302467 346.81297218 -44.67302467 346.81297218 -44.90135193 347.98509216 C-45.96219169 352.80770202 -47.6964638 356.45887775 -50.47712708 360.5406189 C-53.06756752 364.10304419 -53.06756752 364.10304419 -53.31867981 368.26881409 C-52.88213326 369.25252235 -52.88213326 369.25252235 -52.43676758 370.25610352 C-52.11139511 371.01046188 -51.78602264 371.76482025 -51.45079041 372.54203796 C-50.89700462 373.76066277 -50.89700462 373.76066277 -50.33203125 375.00390625 C-49.77238426 376.28507072 -49.77238426 376.28507072 -49.20143127 377.59211731 C-48.39815524 379.42665593 -47.58789531 381.25814915 -46.77142334 383.08685303 C-45.49739058 385.94335055 -44.24399382 388.80805651 -42.99658203 391.67626953 C-41.33949988 395.48394506 -39.67697234 399.2891257 -38.00732422 403.09130859 C-34.99002758 409.96315734 -31.98558221 416.83738025 -29.0625 423.75 C-28.6085083 424.77295166 -28.1545166 425.79590332 -27.68676758 426.84985352 C-24.58253503 434.2533956 -23.02499129 441.91239256 -25.4230957 449.79199219 C-27.8754331 455.59882593 -32.42366061 459.79711738 -38.046875 462.515625 C-44.11282128 464.48974953 -51.23078918 464.44674489 -57.0625 461.75 C-59.78925237 460.18296596 -61.79287166 458.35117054 -63.9375 456.0625 C-65.29875 454.7321875 -65.29875 454.7321875 -66.6875 453.375 C-69.98455615 453.62962414 -71.58721515 454.97916171 -73.875 457.25 C-79.48239055 462.22371955 -85.9969883 463.96702488 -93.4296875 463.65625 C-100.89220414 462.72666315 -106.64948352 459.9887898 -111.6875 454.375 C-113.83928904 451.46151573 -115.80926134 448.47099779 -117.6875 445.375 C-120.77837264 445.91459302 -122.96840312 446.51545156 -125.8125 447.9375 C-131.527716 450.42938377 -137.52991178 450.34243129 -143.44140625 448.53125 C-149.57550691 445.82529799 -152.94281003 442.47714793 -155.6875 436.375 C-156.71919938 433.27990187 -156.9209372 430.93739709 -157 427.6875 C-157.05607422 426.19669922 -157.05607422 426.19669922 -157.11328125 424.67578125 C-156.14347263 417.15754013 -151.62743124 411.60974078 -146.75 406.0625 C-146.23759766 405.45599609 -145.72519531 404.84949219 -145.19726562 404.22460938 C-142.334935 400.91856295 -139.72900152 398.23926164 -135.6875 396.375 C-131.98721764 396.59266367 -130.33258959 396.72991041 -127.6875 399.375 C-126.75731431 404.02592846 -126.86543387 406.13840265 -129.5234375 410.13671875 C-132.36956039 413.60218068 -135.33119112 416.92888985 -138.3984375 420.19921875 C-140.63701197 422.66423861 -141.65244483 424.18024904 -142.25 427.5 C-141.85833744 430.4375235 -141.85833744 430.4375235 -140.125 432.8125 C-137.70509541 434.68209682 -137.70509541 434.68209682 -134.375 434.3125 C-130.66220999 433.48868282 -130.66220999 433.48868282 -127.3125 431.8125 C-122.20436256 429.78685929 -117.75097211 429.36827595 -112.4765625 431.1015625 C-106.77799749 433.70722605 -104.03076924 437.20843672 -100.75 442.5 C-98.53974783 445.58095757 -97.20387432 446.9848055 -93.6875 448.375 C-87.47227378 448.61404716 -84.3634737 445.78585054 -79.81640625 442.03125 C-75.13344175 438.38798955 -70.47879374 437.87575054 -64.6875 438.375 C-59.66662272 439.46649506 -56.54093195 441.27759827 -53.0625 445.0625 C-50.67322126 447.63138284 -50.04948614 448.29692456 -46.5 449.0625 C-43.000233 448.2070014 -41.7227414 447.34958358 -39.6875 444.375 C-38.9835483 438.72851046 -40.99488918 434.5504287 -43.23828125 429.515625 C-43.79320755 428.23392426 -43.79320755 428.23392426 -44.35934448 426.92633057 C-45.56218679 424.15440946 -46.78026979 421.38952686 -48 418.625 C-49.24737244 415.77606484 -50.4921991 412.92602982 -51.73634338 410.07568359 C-52.56226013 408.18353058 -53.38943671 406.29192697 -54.21788025 404.40087891 C-56.60500778 398.93326032 -58.90146549 393.44212399 -61.0859375 387.890625 C-61.56764404 386.68374023 -62.04935059 385.47685547 -62.5456543 384.23339844 C-63.40908311 382.05207122 -64.25290378 379.86284297 -65.07348633 377.66503906 C-67.22378282 371.99980668 -67.22378282 371.99980668 -72.13671875 368.79296875 C-73.30847656 368.65503906 -74.48023438 368.51710938 -75.6875 368.375 C-77.12996094 368.04435547 -77.12996094 368.04435547 -78.6015625 367.70703125 C-79.49617187 367.53558594 -80.39078125 367.36414063 -81.3125 367.1875 C-82.21226562 367.00832031 -83.11203125 366.82914062 -84.0390625 366.64453125 C-87.11078969 366.33192185 -88.77954341 366.26971333 -91.6875 367.375 C-94.18248669 369.4913509 -96.32890669 371.87032257 -98.5 374.3125 C-99.09748047 374.95896484 -99.69496094 375.60542969 -100.31054688 376.27148438 C-103.54577729 379.36669331 -103.54577729 379.36669331 -104.6875 383.375 C-108.24103929 384.5595131 -110.95763478 384.64141894 -114.6875 384.375 C-116.625 383.375 -116.625 383.375 -117.6875 381.375 C-118.4708689 374.75517989 -118.4708689 374.75517989 -116.59057617 371.44238281 C-115.07894719 369.533543 -113.49131446 367.76333144 -111.8125 366 C-111.25691406 365.38511719 -110.70132813 364.77023437 -110.12890625 364.13671875 C-108.03222505 361.82784331 -105.8928508 359.5803508 -103.6875 357.375 C-103.89852574 355.79230692 -104.12111387 354.21072764 -104.38354492 352.63574219 C-105.99892008 340.62098397 -103.65681491 328.72606202 -101.5 316.9375 C-101.3302063 315.9925769 -101.1604126 315.04765381 -100.98547363 314.07409668 C-98.42329782 300.11309319 -94.79458625 287.50115937 -88.25708008 274.88110352 C-84.5061614 267.43421844 -82.81911064 260.63016772 -81.50292969 252.41894531 C-81.32547211 251.35487457 -81.14801453 250.29080383 -80.96517944 249.19448853 C-80.53177626 246.58913402 -80.10609998 243.98276658 -79.6875 241.375 C-93.22233016 241.30539798 -106.75711753 241.25213679 -120.29209042 241.21956348 C-126.57735975 241.20392759 -132.86250636 241.18272698 -139.14770508 241.14868164 C-145.21664697 241.11601455 -151.28547104 241.09813137 -157.35449409 241.09036827 C-159.66646745 241.08483799 -161.97843458 241.07403873 -164.29035759 241.05780983 C-167.53607851 241.03593825 -170.7813165 241.03303719 -174.02709961 241.03442383 C-174.97656967 241.023638 -175.92603973 241.01285217 -176.90428162 241.0017395 C-185.88124156 241.04306403 -193.30595708 242.84504911 -199.6875 249.375 Z M-71.6875 277.375 C-73.54375 280.9328125 -73.54375 280.9328125 -75.4375 284.5625 C-75.81874023 285.27946045 -76.19998047 285.9964209 -76.59277344 286.73510742 C-82.09238879 297.51621111 -84.46669578 309.1958327 -86.55273438 321.01538086 C-86.94051487 323.20451983 -87.34445269 325.39026211 -87.75 327.57617188 C-88.00616643 328.99461897 -88.26140816 330.41323345 -88.515625 331.83203125 C-88.7415332 333.08991455 -88.96744141 334.34779785 -89.20019531 335.64379883 C-90.41627877 343.09104327 -90.41627877 343.09104327 -87.875 349.75 C-81.35002697 353.07645684 -71.98637725 354.78915747 -64.6875 353.375 C-61.76111181 351.06447336 -61.11967632 349.03038437 -60.40625 345.4296875 C-60.20539795 344.44387695 -60.0045459 343.45806641 -59.79760742 342.44238281 C-59.59627197 341.38889648 -59.39493652 340.33541016 -59.1875 339.25 C-58.97391846 338.16557617 -58.76033691 337.08115234 -58.5402832 335.96386719 C-58.11227453 333.77673478 -57.68944054 331.58858289 -57.27197266 329.39941406 C-56.77532731 326.82947146 -56.24762665 324.27017438 -55.69921875 321.7109375 C-52.86136449 307.98177184 -52.96636183 294.25514652 -54.6875 280.375 C-60.2975 279.385 -65.9075 278.395 -71.6875 277.375 Z M83.3125 294.375 C83.3125 303.945 83.3125 313.515 83.3125 323.375 C127.5325 323.375 171.7525 323.375 217.3125 323.375 C217.3125 313.805 217.3125 304.235 217.3125 294.375 C173.0925 294.375 128.8725 294.375 83.3125 294.375 Z M83.3125 339.375 C83.00471421 352.04856413 83.00471421 352.04856413 88.9609375 362.19140625 C96.40135209 368.93326663 104.45538238 369.52569454 114.11254883 369.52026367 C114.9767897 369.52362228 115.84103058 369.5269809 116.73146057 369.53044128 C119.57749891 369.53990977 122.42347815 369.54189237 125.26953125 369.54296875 C127.25721765 369.54618431 129.24490381 369.5495486 131.23258972 369.55305481 C135.39603219 369.55903591 139.55945393 369.56089577 143.72290039 369.56030273 C149.04217607 369.5602012 154.36131801 369.57384903 159.68056202 369.59107494 C163.78566593 369.60222645 167.89073783 369.60422097 171.99585533 369.60369301 C173.95613757 369.60486854 175.91642076 369.60926622 177.876688 369.61702538 C180.62597483 369.62688848 183.37497555 369.62392236 186.12426758 369.61791992 C186.92405029 369.62353943 187.72383301 369.62915894 188.54785156 369.63494873 C196.61784799 369.59046696 203.90805594 368.61499968 210.3125 363.375 C217.97397514 355.45814236 217.3125 351.53532546 217.3125 339.375 C173.0925 339.375 128.8725 339.375 83.3125 339.375 Z M98.3125 384.375 C97.67359348 391.04617649 97.67359348 391.04617649 100.0625 396.9375 C102.97514537 398.84488262 102.97514537 398.84488262 106.3125 399.375 C110.01009178 397.60636411 110.01009178 397.60636411 112.3125 394.375 C112.38246014 392.66797265 112.39690154 390.95831997 112.375 389.25 C112.354375 387.64125 112.33375 386.0325 112.3125 384.375 C107.6925 384.375 103.0725 384.375 98.3125 384.375 Z M188.3125 384.375 C187.81156421 390.68452422 187.81156421 390.68452422 190.0625 396.375 C192.80935195 398.88771247 192.80935195 398.88771247 196.3125 399.375 C198.55606294 398.22713059 200.5220767 397.1654233 202.3125 395.375 C202.38476502 393.52212498 202.3963122 391.66666122 202.375 389.8125 C202.354375 388.018125 202.33375 386.22375 202.3125 384.375 C197.6925 384.375 193.0725 384.375 188.3125 384.375 Z " fill="#000000" transform="translate(278.6875,-0.375)"/>
<path d="M0 0 C8.19829624 4.71622418 12.20906731 10.99891909 15.4921875 19.75390625 C17.45185734 29.73040727 15.48075396 38.43334859 9.9921875 47.06640625 C5.378416 52.97203377 -1.48722272 56.98958043 -8.8203125 58.25390625 C-18.613724 59.0750002 -27.02793921 57.52168476 -34.8203125 51.25390625 C-42.31967866 44.0125828 -44.92535992 38.2263277 -45.2578125 27.81640625 C-45.00506492 17.20100808 -41.41725027 10.55292489 -33.8203125 3.25390625 C-24.09076608 -4.29145628 -11.12156123 -5.2326034 0 0 Z M-27.1953125 19.94140625 C-29.29269784 24.2168456 -29.65873832 27.57549017 -28.8203125 32.25390625 C-26.16672752 37.37153443 -23.28913424 40.43096567 -17.8203125 42.25390625 C-12.09312054 42.79420738 -9.26149056 41.90554155 -4.8203125 38.25390625 C-1.46025258 34.98465876 -0.02275094 32.11865464 0.3359375 27.375 C-0.00463642 22.75170904 -1.92407733 18.95860252 -5.3671875 15.86328125 C-13.5121222 10.55786507 -20.95683839 12.88208028 -27.1953125 19.94140625 Z " fill="#000000" transform="translate(443.8203125,205.74609375)"/>
<path d="M0 0 C4.52756908 3.96525857 8.35842668 8.7515446 9.09765625 14.85546875 C9.38281572 22.90573992 8.17646552 30.51349626 6.69921875 38.41015625 C6.51149902 39.48346191 6.3237793 40.55676758 6.13037109 41.66259766 C4.40862721 50.29815642 1.25224599 56.23386899 -5.86328125 61.53515625 C-11.41732895 64.66195791 -17.43501138 65.26606967 -23.66796875 64.15234375 C-30.24200044 62.22661729 -34.92078821 58.985225 -38.48828125 53.03515625 C-43.13880417 43.56186883 -40.95293375 33.9753163 -38.92578125 24.03515625 C-38.61833984 22.40803711 -38.61833984 22.40803711 -38.3046875 20.74804688 C-36.44944176 11.48868407 -34.35788774 4.2394147 -26.30859375 -1.2109375 C-17.87534106 -5.92182041 -7.95358463 -5.53362987 0 0 Z M-19.17578125 13.59765625 C-21.55562776 19.11890015 -22.7431531 24.84950118 -23.92578125 30.72265625 C-24.13569702 31.72546631 -24.13569702 31.72546631 -24.34985352 32.74853516 C-25.20295761 37.283898 -25.20822003 41.09756983 -24.17578125 45.59765625 C-21.52600248 47.95301516 -20.09561325 48.61955701 -16.55078125 48.53515625 C-13.47112374 47.31950197 -12.85641232 46.47810792 -11.17578125 43.59765625 C-10.2259869 40.38794119 -9.60417315 37.13560835 -8.98828125 33.84765625 C-8.81103516 32.97882813 -8.63378906 32.11 -8.45117188 31.21484375 C-6.40197262 22.21099189 -6.40197262 22.21099189 -8.36328125 13.66015625 C-12.38568912 11.30219302 -15.24485768 11.08535228 -19.17578125 13.59765625 Z " fill="#000000" transform="translate(308.17578125,36.40234375)"/>
</svg>
